<?xml version="1.0" encoding="UTF-8"?>
<!DOCTYPE svg PUBLIC "-//W3C//DTD SVG 1.1//EN" "http://www.w3.org/Graphics/SVG/1.1/DTD/svg11.dtd">
<svg xmlns="http://www.w3.org/2000/svg" version="1.1" width="512px" height="512px" style="shape-rendering:geometricPrecision; text-rendering:geometricPrecision; image-rendering:optimizeQuality; fill-rule:evenodd; clip-rule:evenodd" xmlns:xlink="http://www.w3.org/1999/xlink">
<g><path style="opacity:0.989" fill="#98b1e9" d="M 343.5,-0.5 C 352.167,-0.5 360.833,-0.5 369.5,-0.5C 397.811,4.97867 418.978,20.312 433,45.5C 434.873,47.7089 437.04,49.5422 439.5,51C 448.782,52.8189 458.116,54.4856 467.5,56C 490.771,64.3852 505.438,80.5519 511.5,104.5C 511.5,112.167 511.5,119.833 511.5,127.5C 507.358,145.648 497.358,159.648 481.5,169.5C 460.686,119.849 427.686,80.3495 382.5,51C 357.4,35.6876 330.4,25.1876 301.5,19.5C 306.769,14.417 312.769,10.2503 319.5,7C 327.401,3.75258 335.401,1.25258 343.5,-0.5 Z"/></g>
<g><path style="opacity:1" fill="#7293df" d="M 301.5,19.5 C 330.4,25.1876 357.4,35.6876 382.5,51C 427.686,80.3495 460.686,119.849 481.5,169.5C 472.352,174.959 462.352,177.959 451.5,178.5C 444.054,162.945 435.554,147.945 426,133.5C 419.382,124.05 411.882,115.384 403.5,107.5C 382.891,86.8479 358.891,71.1813 331.5,60.5C 314.191,54.0908 296.525,49.4242 278.5,46.5C 282.398,40.3919 286.564,34.3919 291,28.5C 294.098,24.8926 297.598,21.8926 301.5,19.5 Z"/></g>
<g><path style="opacity:0.999" fill="#f0eaf8" d="M 261.5,45.5 C 267.152,46.0318 272.819,46.3651 278.5,46.5C 296.525,49.4242 314.191,54.0908 331.5,60.5C 308.855,78.0888 304.021,99.7554 317,125.5C 332.853,146.506 353.02,152.006 377.5,142C 390.964,134.046 399.63,122.546 403.5,107.5C 411.882,115.384 419.382,124.05 426,133.5C 435.554,147.945 444.054,162.945 451.5,178.5C 460.144,202.386 464.81,227.053 465.5,252.5C 450.213,244.121 436.713,246.454 425,259.5C 415.418,274.605 416.585,288.772 428.5,302C 437.406,308.949 447.406,311.115 458.5,308.5C 452.494,331.872 442.827,353.539 429.5,373.5C 413.564,349.689 391.231,336.356 362.5,333.5C 340.061,331.925 320.061,338.092 302.5,352C 296.603,357.729 290.936,363.562 285.5,369.5C 279.699,364.599 273.032,361.266 265.5,359.5C 256.287,357.521 246.954,355.688 237.5,354C 235.04,352.542 232.873,350.709 231,348.5C 217.695,324.416 197.528,309.416 170.5,303.5C 167.067,295.442 164.4,287.108 162.5,278.5C 176.631,280.181 188.465,275.848 198,265.5C 204.191,253.408 202.025,243.075 191.5,234.5C 196.611,233.361 201.111,231.028 205,227.5C 208.66,217.961 205.493,213.794 195.5,215C 190.5,221 185.5,221 180.5,215C 174.243,213.257 170.576,215.59 169.5,222C 169.84,224.511 170.84,226.678 172.5,228.5C 166.226,228.059 160.226,229.059 154.5,231.5C 154.176,216.072 155.176,200.738 157.5,185.5C 157.833,185.5 158.167,185.5 158.5,185.5C 178.403,180.729 187.236,168.062 185,147.5C 183.882,142.251 181.382,137.918 177.5,134.5C 177.5,134.167 177.5,133.833 177.5,133.5C 191.613,109.207 209.28,87.7066 230.5,69C 240.902,61.1462 251.235,53.3129 261.5,45.5 Z"/></g>
<g><path style="opacity:1" fill="#e8ddf5" d="M 261.5,45.5 C 251.235,53.3129 240.902,61.1462 230.5,69C 209.28,87.7066 191.613,109.207 177.5,133.5C 161.073,119.525 145.24,120.192 130,135.5C 121.701,147.559 121.368,159.892 129,172.5C 136.246,181.75 145.746,186.083 157.5,185.5C 155.176,200.738 154.176,216.072 154.5,231.5C 136.78,240.781 133.78,253.448 145.5,269.5C 150.558,273.86 156.224,276.86 162.5,278.5C 164.4,287.108 167.067,295.442 170.5,303.5C 130.264,298.203 99.7639,312.87 79,347.5C 76.4986,350.848 73.3319,353.182 69.5,354.5C 35.9346,284.539 37.7679,215.539 75,147.5C 118.435,80.0276 180.601,46.0276 261.5,45.5 Z"/></g>
<g><path style="opacity:1" fill="#e7dcf4" d="M 331.5,60.5 C 358.891,71.1813 382.891,86.8479 403.5,107.5C 399.63,122.546 390.964,134.046 377.5,142C 353.02,152.006 332.853,146.506 317,125.5C 304.021,99.7554 308.855,78.0888 331.5,60.5 Z"/></g>
<g><path style="opacity:1" fill="#d6c4ea" d="M 177.5,133.5 C 177.5,133.833 177.5,134.167 177.5,134.5C 167.837,150.145 161.503,167.145 158.5,185.5C 158.167,185.5 157.833,185.5 157.5,185.5C 145.746,186.083 136.246,181.75 129,172.5C 121.368,159.892 121.701,147.559 130,135.5C 145.24,120.192 161.073,119.525 177.5,133.5 Z"/></g>
<g><path style="opacity:1" fill="#e7dcf4" d="M 177.5,134.5 C 181.382,137.918 183.882,142.251 185,147.5C 187.236,168.062 178.403,180.729 158.5,185.5C 161.503,167.145 167.837,150.145 177.5,134.5 Z"/></g>
<g><path style="opacity:1" fill="#4b5762" d="M 191.5,234.5 C 184.218,235.294 177.884,233.294 172.5,228.5C 170.84,226.678 169.84,224.511 169.5,222C 170.576,215.59 174.243,213.257 180.5,215C 185.5,221 190.5,221 195.5,215C 205.493,213.794 208.66,217.961 205,227.5C 201.111,231.028 196.611,233.361 191.5,234.5 Z"/></g>
<g><path style="opacity:1" fill="#4c5762" d="M 338.5,228.5 C 332.993,232.89 326.66,234.89 319.5,234.5C 314.389,233.361 309.889,231.028 306,227.5C 302.017,217.821 305.184,213.654 315.5,215C 320.415,220.867 325.415,220.867 330.5,215C 336.757,213.257 340.424,215.59 341.5,222C 341.16,224.511 340.16,226.678 338.5,228.5 Z"/></g>
<g><path style="opacity:1" fill="#4b5762" d="M 251.5,225.5 C 266.52,226.715 272.02,234.715 268,249.5C 264.269,256.78 258.435,259.28 250.5,257C 242.923,252.243 240.09,245.41 242,236.5C 243.97,231.704 247.137,228.037 251.5,225.5 Z"/></g>
<g><path style="opacity:1" fill="#fea1ac" d="M 172.5,228.5 C 177.884,233.294 184.218,235.294 191.5,234.5C 202.025,243.075 204.191,253.408 198,265.5C 188.465,275.848 176.631,280.181 162.5,278.5C 156.224,276.86 150.558,273.86 145.5,269.5C 133.78,253.448 136.78,240.781 154.5,231.5C 160.226,229.059 166.226,228.059 172.5,228.5 Z"/></g>
<g><path style="opacity:1" fill="#fea1ac" d="M 338.5,228.5 C 353.954,227.472 365.12,233.805 372,247.5C 373.508,263.01 366.675,272.844 351.5,277C 332.471,282.006 318.638,275.839 310,258.5C 308.838,252.443 309.838,246.777 313,241.5C 315.372,239.297 317.539,236.963 319.5,234.5C 326.66,234.89 332.993,232.89 338.5,228.5 Z"/></g>
<g><path style="opacity:0.994" fill="#e8ddf5" d="M 465.5,252.5 C 465.78,271.536 463.447,290.202 458.5,308.5C 447.406,311.115 437.406,308.949 428.5,302C 416.585,288.772 415.418,274.605 425,259.5C 436.713,246.454 450.213,244.121 465.5,252.5 Z"/></g>
<g><path style="opacity:0.997" fill="#7293df" d="M 170.5,303.5 C 197.528,309.416 217.695,324.416 231,348.5C 232.873,350.709 235.04,352.542 237.5,354C 246.954,355.688 256.287,357.521 265.5,359.5C 262.958,360.624 260.292,361.458 257.5,362C 217.7,362.82 190.2,381.654 175,418.5C 168.937,439.211 169.104,459.878 175.5,480.5C 134.499,480.667 93.4986,480.5 52.5,480C 23.9657,474.427 6.299,457.594 -0.5,429.5C -0.5,421.833 -0.5,414.167 -0.5,406.5C 9.86909,372.175 33.2024,354.842 69.5,354.5C 73.3319,353.182 76.4986,350.848 79,347.5C 99.7639,312.87 130.264,298.203 170.5,303.5 Z"/></g>
<g><path style="opacity:1" fill="#7293df" d="M 362.5,333.5 C 350.194,347.667 340.027,363.333 332,380.5C 316.526,422.045 321.86,460.712 348,496.5C 352.175,501.531 356.341,506.531 360.5,511.5C 324.5,511.5 288.5,511.5 252.5,511.5C 237.706,508.233 225.206,500.9 215,489.5C 212.642,486.778 210.809,483.778 209.5,480.5C 194.269,449.59 199.602,422.757 225.5,400C 230.51,396.493 235.843,393.493 241.5,391C 252.097,388.562 262.763,386.562 273.5,385C 279.067,381.025 283.067,375.858 285.5,369.5C 290.936,363.562 296.603,357.729 302.5,352C 320.061,338.092 340.061,331.925 362.5,333.5 Z"/></g>
<g><path style="opacity:0.997" fill="#99b1e9" d="M 362.5,333.5 C 391.231,336.356 413.564,349.689 429.5,373.5C 431.696,378.714 435.363,382.548 440.5,385C 463.259,385.022 482.425,393.189 498,409.5C 504.7,418.229 509.2,427.896 511.5,438.5C 511.5,445.833 511.5,453.167 511.5,460.5C 504.833,487.833 487.833,504.833 460.5,511.5C 427.167,511.5 393.833,511.5 360.5,511.5C 356.341,506.531 352.175,501.531 348,496.5C 321.86,460.712 316.526,422.045 332,380.5C 340.027,363.333 350.194,347.667 362.5,333.5 Z"/></g>
<g><path style="opacity:1" fill="#4677d5" d="M 265.5,359.5 C 273.032,361.266 279.699,364.599 285.5,369.5C 283.067,375.858 279.067,381.025 273.5,385C 262.763,386.562 252.097,388.562 241.5,391C 235.843,393.493 230.51,396.493 225.5,400C 199.602,422.757 194.269,449.59 209.5,480.5C 198.167,480.5 186.833,480.5 175.5,480.5C 169.104,459.878 168.937,439.211 175,418.5C 190.2,381.654 217.7,362.82 257.5,362C 260.292,361.458 262.958,360.624 265.5,359.5 Z"/></g>
</svg>
