<?xml version="1.0" encoding="UTF-8"?>
<!DOCTYPE svg PUBLIC "-//W3C//DTD SVG 1.1//EN" "http://www.w3.org/Graphics/SVG/1.1/DTD/svg11.dtd">
<svg xmlns="http://www.w3.org/2000/svg" version="1.1" width="512px" height="512px" style="shape-rendering:geometricPrecision; text-rendering:geometricPrecision; image-rendering:optimizeQuality; fill-rule:evenodd; clip-rule:evenodd" xmlns:xlink="http://www.w3.org/1999/xlink">
<g><path style="opacity:0.981" fill="#f29e77" d="M 197.5,-0.5 C 198.833,-0.5 200.167,-0.5 201.5,-0.5C 218.767,11.4608 237.767,19.6274 258.5,24C 271.825,24.8402 285.158,25.5069 298.5,26C 305.375,38.2559 312.875,50.0892 321,61.5C 335.038,75.8733 351.038,87.5399 369,96.5C 370.177,108.797 370.843,121.13 371,133.5C 372.078,143.145 374.411,152.478 378,161.5C 383.913,172.993 390.079,184.327 396.5,195.5C 393.392,201.394 390.059,207.061 386.5,212.5C 374.803,205.151 362.47,199.151 349.5,194.5C 349.5,194.167 349.5,193.833 349.5,193.5C 346.112,130.532 316.112,85.3656 259.5,58C 192.895,33.2787 135.062,46.4454 86,97.5C 47.7538,145.427 39.7538,198.093 62,255.5C 66.1953,265.162 71.3619,274.162 77.5,282.5C 67.0233,288.743 57.69,296.41 49.5,305.5C 42.9061,302.089 36.4061,298.423 30,294.5C 29.5069,281.158 28.8402,267.825 28,254.5C 26.4457,245.949 24.1123,237.616 21,229.5C 14.9252,218.267 9.09182,206.934 3.5,195.5C 9.90426,183.693 16.0709,171.693 22,159.5C 24.782,152.039 26.782,144.372 28,136.5C 28.6744,123.155 29.5077,109.822 30.5,96.5C 49.2721,87.1982 65.7721,74.8649 80,59.5C 87.0314,48.6327 93.8647,37.6327 100.5,26.5C 113.822,25.5077 127.155,24.6744 140.5,24C 161.219,19.6358 180.219,11.4691 197.5,-0.5 Z"/></g>
<g><path style="opacity:1" fill="#f5d68e" d="M 349.5,193.5 C 280.388,171.074 219.221,184.407 166,233.5C 158.263,242.068 151.096,251.068 144.5,260.5C 120.398,262.645 98.0647,269.979 77.5,282.5C 71.3619,274.162 66.1953,265.162 62,255.5C 39.7538,198.093 47.7538,145.427 86,97.5C 135.062,46.4454 192.895,33.2787 259.5,58C 316.112,85.3656 346.112,130.532 349.5,193.5 Z"/></g>
<g><path style="opacity:1" fill="#484e57" d="M 129.5,137.5 C 133.803,136.796 137.303,138.13 140,141.5C 140.667,147.833 140.667,154.167 140,160.5C 137.442,164.212 133.942,165.378 129.5,164C 127.513,162.681 126.346,160.848 126,158.5C 125.333,152.833 125.333,147.167 126,141.5C 127.376,140.295 128.542,138.962 129.5,137.5 Z"/></g>
<g><path style="opacity:1" fill="#484f57" d="M 262.5,137.5 C 266.909,136.618 270.409,137.952 273,141.5C 273.667,147.833 273.667,154.167 273,160.5C 268.333,165.833 263.667,165.833 259,160.5C 258.333,154.167 258.333,147.833 259,141.5C 260.376,140.295 261.542,138.962 262.5,137.5 Z"/></g>
<g><path style="opacity:1" fill="#4a5058" d="M 180.5,148.5 C 182.199,148.34 183.866,148.506 185.5,149C 194.541,157.659 203.541,157.659 212.5,149C 220.718,147.885 224.218,151.385 223,159.5C 207.324,175.498 191.657,175.498 176,159.5C 174.776,154.626 176.276,150.959 180.5,148.5 Z"/></g>
<g><path style="opacity:1" fill="#e9c16e" d="M 349.5,193.5 C 349.5,193.833 349.5,194.167 349.5,194.5C 349.517,204.981 348.517,215.314 346.5,225.5C 293.74,204.553 244.74,211.053 199.5,245C 183.481,258.012 170.815,273.679 161.5,292C 138.672,290.542 117.339,295.375 97.5,306.5C 90.4566,298.792 83.79,290.792 77.5,282.5C 98.0647,269.979 120.398,262.645 144.5,260.5C 151.096,251.068 158.263,242.068 166,233.5C 219.221,184.407 280.388,171.074 349.5,193.5 Z"/></g>
<g><path style="opacity:1" fill="#ed906b" d="M 349.5,194.5 C 362.47,199.151 374.803,205.151 386.5,212.5C 381.131,221.575 377.131,231.242 374.5,241.5C 365.452,235.644 356.119,230.31 346.5,225.5C 348.517,215.314 349.517,204.981 349.5,194.5 Z"/></g>
<g><path style="opacity:0.996" fill="#eaebeb" d="M 346.5,225.5 C 356.119,230.31 365.452,235.644 374.5,241.5C 404.29,264.718 422.623,295.052 429.5,332.5C 471.228,339.394 497.061,363.394 507,404.5C 512.936,453.487 493.436,487.654 448.5,507C 442.747,508.686 437.081,510.186 431.5,511.5C 333.5,511.5 235.5,511.5 137.5,511.5C 82.9486,501.114 51.1153,468.447 42,413.5C 39.1533,379.23 49.32,349.563 72.5,324.5C 80.2743,317.774 88.6077,311.774 97.5,306.5C 117.339,295.375 138.672,290.542 161.5,292C 170.815,273.679 183.481,258.012 199.5,245C 244.74,211.053 293.74,204.553 346.5,225.5 Z"/></g>
<g><path style="opacity:1" fill="#ed906b" d="M 77.5,282.5 C 83.79,290.792 90.4566,298.792 97.5,306.5C 88.6077,311.774 80.2743,317.774 72.5,324.5C 65.7073,317.034 58.0406,310.701 49.5,305.5C 57.69,296.41 67.0233,288.743 77.5,282.5 Z"/></g>
<g><path style="opacity:1" fill="#484f59" d="M 201.5,360.5 C 205.954,359.617 209.454,360.95 212,364.5C 212.667,370.833 212.667,377.167 212,383.5C 207.338,389.998 202.671,389.998 198,383.5C 197.333,377.167 197.333,370.833 198,364.5C 199.376,363.295 200.542,361.962 201.5,360.5 Z"/></g>
<g><path style="opacity:1" fill="#484f58" d="M 341.5,360.5 C 345.909,359.618 349.409,360.952 352,364.5C 352.667,370.5 352.667,376.5 352,382.5C 347.714,389.916 343.047,390.249 338,383.5C 337.333,377.167 337.333,370.833 338,364.5C 339.376,363.295 340.542,361.962 341.5,360.5 Z"/></g>
<g><path style="opacity:1" fill="#484f58" d="M 254.5,372.5 C 256.857,372.337 259.19,372.503 261.5,373C 270.5,381.667 279.5,381.667 288.5,373C 297.388,371.221 300.888,374.721 299,383.5C 287.656,395.165 274.49,397.665 259.5,391C 256.705,389.207 254.205,387.04 252,384.5C 249.523,379.669 250.356,375.669 254.5,372.5 Z"/></g>
</svg>
