<?xml version="1.0" encoding="UTF-8"?>
<!DOCTYPE svg PUBLIC "-//W3C//DTD SVG 1.1//EN" "http://www.w3.org/Graphics/SVG/1.1/DTD/svg11.dtd">
<svg xmlns="http://www.w3.org/2000/svg" version="1.1" width="512px" height="512px" style="shape-rendering:geometricPrecision; text-rendering:geometricPrecision; image-rendering:optimizeQuality; fill-rule:evenodd; clip-rule:evenodd" xmlns:xlink="http://www.w3.org/1999/xlink">
<g><path style="opacity:0.994" fill="#c6c5cb" d="M 485.5,248.5 C 462.265,194.775 421.599,163.942 363.5,156C 329.826,152.27 298.826,159.437 270.5,177.5C 270.167,177.5 269.833,177.5 269.5,177.5C 261.279,162.946 250.279,150.946 236.5,141.5C 248.529,112.974 269.196,93.4742 298.5,83C 348.675,68.7271 389.841,81.8938 422,122.5C 427.447,131.06 432.114,140.06 436,149.5C 437.167,150.667 438.333,151.833 439.5,153C 473.653,168.467 490.153,194.967 489,232.5C 488.749,238.158 487.582,243.492 485.5,248.5 Z"/></g>
<g><path style="opacity:0.995" fill="#b1afbc" d="M 236.5,141.5 C 250.279,150.946 261.279,162.946 269.5,177.5C 251.542,189.624 236.376,204.624 224,222.5C 219.667,230.5 215.333,238.5 211,246.5C 208.01,249.491 204.51,251.657 200.5,253C 154.469,249.436 118.636,266.603 93,304.5C 86.7425,315.11 82.5758,326.443 80.5,338.5C 37.5008,339.807 10.5008,319.807 -0.5,278.5C -0.5,270.167 -0.5,261.833 -0.5,253.5C 7.31359,219.856 28.3136,200.023 62.5,194C 70.6033,193.937 78.6033,193.27 86.5,192C 87.6667,190.833 88.8333,189.667 90,188.5C 110.149,146.496 143.649,125.996 190.5,127C 206.969,128.324 222.303,133.157 236.5,141.5 Z"/></g>
<g><path style="opacity:0.999" fill="#b2b0bd" d="M 485.5,248.5 C 482.583,259.005 477.583,268.338 470.5,276.5C 464.021,274.342 458.188,271.009 453,266.5C 436.586,224.09 406.086,198.256 361.5,189C 335.048,184.725 310.048,188.892 286.5,201.5C 284.349,199.711 281.849,198.378 279,197.5C 276.43,190.696 273.597,184.03 270.5,177.5C 298.826,159.437 329.826,152.27 363.5,156C 421.599,163.942 462.265,194.775 485.5,248.5 Z"/></g>
<g><path style="opacity:1" fill="#a09dad" d="M 269.5,177.5 C 269.833,177.5 270.167,177.5 270.5,177.5C 273.597,184.03 276.43,190.696 279,197.5C 281.849,198.378 284.349,199.711 286.5,201.5C 262.132,215.036 244.632,234.702 234,260.5C 232.833,261.667 231.667,262.833 230.5,264C 201.049,261.151 175.382,269.485 153.5,289C 140.218,303.064 131.885,319.564 128.5,338.5C 112.5,338.5 96.5,338.5 80.5,338.5C 82.5758,326.443 86.7425,315.11 93,304.5C 118.636,266.603 154.469,249.436 200.5,253C 204.51,251.657 208.01,249.491 211,246.5C 215.333,238.5 219.667,230.5 224,222.5C 236.376,204.624 251.542,189.624 269.5,177.5 Z"/></g>
<g><path style="opacity:0.998" fill="#c6c5cb" d="M 470.5,276.5 C 493.111,290.39 506.778,310.39 511.5,336.5C 511.5,345.167 511.5,353.833 511.5,362.5C 502.003,401.829 477.336,425.329 437.5,433C 358.5,433.667 279.5,433.667 200.5,433C 161.112,425.279 137.279,401.779 129,362.5C 128.5,354.507 128.334,346.507 128.5,338.5C 131.885,319.564 140.218,303.064 153.5,289C 175.382,269.485 201.049,261.151 230.5,264C 231.667,262.833 232.833,261.667 234,260.5C 244.632,234.702 262.132,215.036 286.5,201.5C 310.048,188.892 335.048,184.725 361.5,189C 406.086,198.256 436.586,224.09 453,266.5C 458.188,271.009 464.021,274.342 470.5,276.5 Z"/></g>
<g><path style="opacity:1" fill="#5c596e" d="M 247.5,327.5 C 243.342,329.241 239.676,328.574 236.5,325.5C 235.374,318.914 235.208,312.247 236,305.5C 238.513,301.788 242.013,300.622 246.5,302C 248.333,302.5 249.5,303.667 250,305.5C 250.667,311.833 250.667,318.167 250,324.5C 248.955,325.373 248.122,326.373 247.5,327.5 Z"/></g>
<g><path style="opacity:1" fill="#5c596e" d="M 403.5,325.5 C 400.324,328.574 396.658,329.241 392.5,327.5C 391.878,326.373 391.045,325.373 390,324.5C 389.333,318.167 389.333,311.833 390,305.5C 392.513,301.788 396.013,300.622 400.5,302C 402.333,302.5 403.5,303.667 404,305.5C 404.792,312.247 404.626,318.914 403.5,325.5 Z"/></g>
<g><path style="opacity:1" fill="#5c596e" d="M 309.5,314.5 C 316.175,314.334 322.842,314.5 329.5,315C 341.981,317.444 346.814,324.944 344,337.5C 337.442,357.007 324.942,362.507 306.5,354C 298.048,346.31 294.548,336.81 296,325.5C 298.616,319.372 303.116,315.706 309.5,314.5 Z"/></g>
<g><path style="opacity:1" fill="#fefefe" d="M 236.5,325.5 C 239.676,328.574 243.342,329.241 247.5,327.5C 261.782,330.938 268.616,339.938 268,354.5C 264.232,364.6 257.066,370.767 246.5,373C 232.894,376.13 221.394,372.63 212,362.5C 204.033,345.245 209.2,333.411 227.5,327C 230.432,326.047 233.432,325.547 236.5,325.5 Z"/></g>
<g><path style="opacity:1" fill="#fefefe" d="M 403.5,325.5 C 416.959,325.974 426.459,332.308 432,344.5C 432.898,359.951 425.731,369.451 410.5,373C 394.802,376.554 382.636,371.721 374,358.5C 369.571,347.778 372.071,338.945 381.5,332C 384.729,329.384 388.396,327.884 392.5,327.5C 396.658,329.241 400.324,328.574 403.5,325.5 Z"/></g>
</svg>
