<?xml version="1.0" encoding="UTF-8"?>
<!DOCTYPE svg PUBLIC "-//W3C//DTD SVG 1.1//EN" "http://www.w3.org/Graphics/SVG/1.1/DTD/svg11.dtd">
<svg xmlns="http://www.w3.org/2000/svg" version="1.1" width="512px" height="512px" style="shape-rendering:geometricPrecision; text-rendering:geometricPrecision; image-rendering:optimizeQuality; fill-rule:evenodd; clip-rule:evenodd" xmlns:xlink="http://www.w3.org/1999/xlink">
<g><path style="opacity:0.976" fill="#ffce71" d="M 24.5,-0.5 C 27.5,-0.5 30.5,-0.5 33.5,-0.5C 37.2077,4.24861 39.8743,9.58194 41.5,15.5C 47.0185,17.5091 52.1851,20.1757 57,23.5C 59,27.1667 59,30.8333 57,34.5C 52.6404,37.7628 47.8071,40.0961 42.5,41.5C 40.4798,46.7189 37.9798,51.7189 35,56.5C 30.409,59.3674 26.0756,59.034 22,55.5C 19.5551,50.9446 17.3885,46.278 15.5,41.5C 9.58194,39.8743 4.24861,37.2077 -0.5,33.5C -0.5,30.5 -0.5,27.5 -0.5,24.5C 4.38558,20.309 10.0522,17.6423 16.5,16.5C 17.6423,10.0522 20.309,4.38558 24.5,-0.5 Z"/></g>
<g><path style="opacity:0.997" fill="#d4d4d5" d="M 232.5,-0.5 C 247.833,-0.5 263.167,-0.5 278.5,-0.5C 288.432,0.829812 298.432,2.49648 308.5,4.5C 250.107,17.6885 201.774,47.1885 163.5,93C 176.06,86.5913 188.394,87.2579 200.5,95C 211.399,104.688 214.565,116.521 210,130.5C 203.073,145.717 191.24,152.217 174.5,150C 155.356,143.165 147.522,129.665 151,109.5C 105.275,178.147 94.1084,252.147 117.5,331.5C 142.839,315.129 167.839,315.629 192.5,333C 214.236,351.875 220.736,375.042 212,402.5C 205.916,417.749 195.75,429.415 181.5,437.5C 216.835,472.464 258.835,495.464 307.5,506.5C 297.785,508.457 288.118,510.123 278.5,511.5C 263.167,511.5 247.833,511.5 232.5,511.5C 143.853,500.61 76.6868,456.943 31,380.5C 13.7076,348.465 3.20759,314.465 -0.5,278.5C -0.5,263.167 -0.5,247.833 -0.5,232.5C 11.9006,134.848 62.234,64.3481 150.5,21C 176.892,9.73692 204.225,2.57026 232.5,-0.5 Z"/></g>
<g><path style="opacity:0.999" fill="#eeeced" d="M 308.5,4.5 C 395.235,25.0684 456.735,76.0684 493,157.5C 502.497,181.819 508.663,206.819 511.5,232.5C 511.5,247.833 511.5,263.167 511.5,278.5C 506.17,330.845 487.17,377.512 454.5,418.5C 452.073,414.098 449.906,409.431 448,404.5C 444.375,395.772 438.209,393.272 429.5,397C 424.654,403.526 420.987,410.692 418.5,418.5C 411.935,420.782 405.602,423.615 399.5,427C 392.847,433.042 392.847,439.042 399.5,445C 405.683,448.659 412.017,451.826 418.5,454.5C 385.842,480.657 348.842,497.99 307.5,506.5C 258.835,495.464 216.835,472.464 181.5,437.5C 195.75,429.415 205.916,417.749 212,402.5C 220.736,375.042 214.236,351.875 192.5,333C 167.839,315.629 142.839,315.129 117.5,331.5C 94.1084,252.147 105.275,178.147 151,109.5C 147.522,129.665 155.356,143.165 174.5,150C 191.24,152.217 203.073,145.717 210,130.5C 214.565,116.521 211.399,104.688 200.5,95C 188.394,87.2579 176.06,86.5913 163.5,93C 201.774,47.1885 250.107,17.6885 308.5,4.5 Z"/></g>
<g><path style="opacity:1" fill="#d4d4d5" d="M 372.5,88.5 C 381.731,87.3649 388.231,91.0315 392,99.5C 392.833,113.333 386.333,119.833 372.5,119C 362.121,113.861 359.288,106.028 364,95.5C 366.441,92.5464 369.275,90.2131 372.5,88.5 Z"/></g>
<g><path style="opacity:1" fill="#333e41" d="M 193.5,208.5 C 190.813,208.664 188.146,208.497 185.5,208C 183.356,207.208 182.023,205.708 181.5,203.5C 181.334,198.156 181.501,192.823 182,187.5C 186.588,182.257 191.255,182.257 196,187.5C 196.667,193.167 196.667,198.833 196,204.5C 195.338,205.984 194.504,207.317 193.5,208.5 Z"/></g>
<g><path style="opacity:1" fill="#333e41" d="M 328.5,204.5 C 325.805,208.011 322.138,209.344 317.5,208.5C 315.827,207.657 314.66,206.324 314,204.5C 313.333,198.833 313.333,193.167 314,187.5C 318.588,182.257 323.255,182.257 328,187.5C 328.499,193.157 328.666,198.824 328.5,204.5 Z"/></g>
<g><path style="opacity:1" fill="#fe8e9e" d="M 181.5,203.5 C 182.023,205.708 183.356,207.208 185.5,208C 188.146,208.497 190.813,208.664 193.5,208.5C 204.642,217.435 206.475,228.102 199,240.5C 192.057,247.65 183.557,250.984 173.5,250.5C 156.917,250.56 146.917,242.56 143.5,226.5C 145.271,215.888 151.271,208.721 161.5,205C 168.076,203.623 174.743,203.123 181.5,203.5 Z"/></g>
<g><path style="opacity:1" fill="#fe8e9e" d="M 317.5,208.5 C 322.138,209.344 325.805,208.011 328.5,204.5C 342.578,201.804 354.411,205.804 364,216.5C 369.874,230.543 366.041,241.043 352.5,248C 336.591,254.908 322.758,252.074 311,239.5C 307.669,233.618 306.669,227.285 308,220.5C 310.619,216.05 313.786,212.05 317.5,208.5 Z"/></g>
<g><path style="opacity:1" fill="#333f42" d="M 235.5,212.5 C 237.857,212.337 240.19,212.503 242.5,213C 251.083,225.589 259.75,225.589 268.5,213C 276.17,211.673 279.67,214.839 279,222.5C 275.824,230.509 269.99,235.342 261.5,237C 247.97,239.485 238.137,234.651 232,222.5C 231.333,220.5 231.333,218.5 232,216.5C 233.376,215.295 234.542,213.962 235.5,212.5 Z"/></g>
<g><path style="opacity:1" fill="#b9bbbc" d="M 55.5,240.5 C 71.8391,239.331 78.3391,246.665 75,262.5C 70.4636,269.844 63.9636,272.344 55.5,270C 42.2068,260.132 42.2068,250.299 55.5,240.5 Z"/></g>
<g><path style="opacity:1" fill="#d4d4d5" d="M 399.5,258.5 C 428.625,257.149 446.792,270.482 454,298.5C 453.679,333.821 435.845,351.321 400.5,351C 370.751,342.687 358.251,323.187 363,292.5C 369.296,274.698 381.463,263.365 399.5,258.5 Z"/></g>
<g><path style="opacity:1" fill="#b9bbbc" d="M 115.5,332.5 C 116.75,332.577 117.583,333.244 118,334.5C 130.673,373.797 151.507,407.964 180.5,437C 143.478,450.771 115.645,440.271 97,405.5C 87.0447,376.987 93.2113,352.654 115.5,332.5 Z"/></g>
<g><path style="opacity:0.992" fill="#fece71" d="M 454.5,418.5 C 461.131,420.655 467.464,423.489 473.5,427C 479.062,433.62 478.728,439.953 472.5,446C 466.583,449.628 460.25,452.128 453.5,453.5C 451.835,461.996 448.168,469.496 442.5,476C 436.098,478.812 430.598,477.645 426,472.5C 422.811,466.76 420.311,460.76 418.5,454.5C 412.017,451.826 405.683,448.659 399.5,445C 392.847,439.042 392.847,433.042 399.5,427C 405.602,423.615 411.935,420.782 418.5,418.5C 420.987,410.692 424.654,403.526 429.5,397C 438.209,393.272 444.375,395.772 448,404.5C 449.906,409.431 452.073,414.098 454.5,418.5 Z"/></g>
<g><path style="opacity:1" fill="#d4d4d5" d="M 307.5,410.5 C 325.269,409.755 331.436,417.755 326,434.5C 320.227,440.576 313.394,442.076 305.5,439C 294.401,428.636 295.068,419.136 307.5,410.5 Z"/></g>
</svg>
