<?xml version="1.0" encoding="UTF-8"?>
<!DOCTYPE svg PUBLIC "-//W3C//DTD SVG 1.1//EN" "http://www.w3.org/Graphics/SVG/1.1/DTD/svg11.dtd">
<svg xmlns="http://www.w3.org/2000/svg" version="1.1" width="512px" height="512px" style="shape-rendering:geometricPrecision; text-rendering:geometricPrecision; image-rendering:optimizeQuality; fill-rule:evenodd; clip-rule:evenodd" xmlns:xlink="http://www.w3.org/1999/xlink">
<g><path style="opacity:0.997" fill="#dc636e" d="M 239.5,-0.5 C 250.167,-0.5 260.833,-0.5 271.5,-0.5C 320.602,7.64962 355.769,34.3163 377,79.5C 386.461,103.405 389.294,128.072 385.5,153.5C 378.653,186.656 361.986,213.656 335.5,234.5C 305.813,256.54 290.98,286.206 291,323.5C 285.647,348.188 270.48,358.688 245.5,355C 230.831,349.997 222.331,339.83 220,324.5C 220.841,305.516 216.674,287.849 207.5,271.5C 203.255,262.689 197.755,254.689 191,247.5C 182.959,240.621 174.793,233.954 166.5,227.5C 145.801,207.101 132.135,182.768 125.5,154.5C 118.234,97.8952 137.567,53.0619 183.5,20C 200.79,9.07337 219.457,2.24004 239.5,-0.5 Z"/></g>
<g><path style="opacity:1" fill="#ddd9eb" d="M 282.5,44.5 C 269.25,49.1232 257.584,56.2898 247.5,66C 247.728,66.3988 248.062,66.5654 248.5,66.5C 232.477,70.6832 221.643,80.6832 216,96.5C 215.333,101.167 215.333,105.833 216,110.5C 217.812,113.821 220.645,115.155 224.5,114.5C 223.791,115.404 222.791,115.737 221.5,115.5C 216.777,158.557 233.111,190.724 270.5,212C 274.668,214.089 279.002,215.589 283.5,216.5C 239.416,228.749 204.249,216.082 178,178.5C 157.482,140.444 160.482,104.444 187,70.5C 213.747,42.6905 245.58,34.0238 282.5,44.5 Z"/></g>
<g><path style="opacity:1" fill="#f5f7f8" d="M 282.5,44.5 C 318.657,57.1687 339.824,82.502 346,120.5C 348.276,163.804 330.109,194.971 291.5,214C 288.846,214.941 286.179,215.774 283.5,216.5C 279.002,215.589 274.668,214.089 270.5,212C 233.111,190.724 216.777,158.557 221.5,115.5C 222.791,115.737 223.791,115.404 224.5,114.5C 227.112,113.723 228.945,112.056 230,109.5C 232.027,89.1412 243.194,80.3078 263.5,83C 282.041,93.0253 285.541,106.859 274,124.5C 267.783,129.685 260.616,132.518 252.5,133C 250.333,133.833 248.833,135.333 248,137.5C 247.333,146.833 247.333,156.167 248,165.5C 251.804,171.377 256.471,172.044 262,167.5C 263.425,160.615 263.925,153.615 263.5,146.5C 279.644,142.525 290.144,132.525 295,116.5C 298.544,92.0741 288.711,75.9075 265.5,68C 259.912,66.7111 254.245,66.2111 248.5,66.5C 248.062,66.5654 247.728,66.3988 247.5,66C 257.584,56.2898 269.25,49.1232 282.5,44.5 Z"/></g>
<g><path style="opacity:1" fill="#3744ab" d="M 248.5,66.5 C 254.245,66.2111 259.912,66.7111 265.5,68C 288.711,75.9075 298.544,92.0741 295,116.5C 290.144,132.525 279.644,142.525 263.5,146.5C 263.925,153.615 263.425,160.615 262,167.5C 256.471,172.044 251.804,171.377 248,165.5C 247.333,156.167 247.333,146.833 248,137.5C 248.833,135.333 250.333,133.833 252.5,133C 260.616,132.518 267.783,129.685 274,124.5C 285.541,106.859 282.041,93.0253 263.5,83C 243.194,80.3078 232.027,89.1412 230,109.5C 228.945,112.056 227.112,113.723 224.5,114.5C 220.645,115.155 217.812,113.821 216,110.5C 215.333,105.833 215.333,101.167 216,96.5C 221.643,80.6832 232.477,70.6832 248.5,66.5 Z"/></g>
<g><path style="opacity:1" fill="#6ec17d" d="M 125.5,154.5 C 132.135,182.768 145.801,207.101 166.5,227.5C 159.238,241.958 154.572,257.291 152.5,273.5C 152.167,273.5 151.833,273.5 151.5,273.5C 138.829,273.333 126.162,273.5 113.5,274C 128.795,278.405 137.128,288.572 138.5,304.5C 137.476,319.689 129.809,329.856 115.5,335C 127.162,335.5 138.829,335.667 150.5,335.5C 161.346,335.172 172.013,335.506 182.5,336.5C 171.828,336.333 161.161,336.5 150.5,337C 153.704,358.447 160.037,378.947 169.5,398.5C 166.482,398.335 163.482,398.502 160.5,399C 165.951,400.223 170.618,402.723 174.5,406.5C 173.475,406.897 173.308,407.563 174,408.5C 176.858,413.765 180.025,418.099 183.5,421.5C 184.537,422.93 185.204,424.597 185.5,426.5C 184.925,446.239 174.925,457.739 155.5,461C 144.505,461.5 133.505,461.667 122.5,461.5C 76.8264,421.463 53.8264,370.796 53.5,309.5C 54.0842,246.679 78.0842,195.013 125.5,154.5 Z"/></g>
<g><path style="opacity:0.996" fill="#9bd069" d="M 385.5,153.5 C 445.377,207.629 467.877,274.629 453,354.5C 447.156,379.577 436.989,402.577 422.5,423.5C 407.163,423.667 391.83,423.5 376.5,423C 356.293,415.76 348.793,401.593 354,380.5C 358.988,369.333 367.488,362.999 379.5,361.5C 392.504,361.667 405.504,361.5 418.5,361C 417.255,360.209 415.922,359.709 414.5,359.5C 399.73,354.823 392.397,344.656 392.5,329C 393.739,313.746 401.739,303.746 416.5,299C 397.167,298.667 377.833,298.333 358.5,298C 338.034,289.563 331.201,274.73 338,253.5C 342.371,244.958 349.204,239.624 358.5,237.5C 360.103,237.688 361.437,237.188 362.5,236C 354.507,235.5 346.507,235.334 338.5,235.5C 337.209,235.737 336.209,235.404 335.5,234.5C 361.986,213.656 378.653,186.656 385.5,153.5 Z"/></g>
<g><path style="opacity:1" fill="#3d49ad" d="M 253.5,178.5 C 260.465,178.961 263.632,182.628 263,189.5C 260.774,193.861 257.274,195.361 252.5,194C 245.754,188.512 246.088,183.346 253.5,178.5 Z"/></g>
<g><path style="opacity:1" fill="#9bcf69" d="M 166.5,227.5 C 174.793,233.954 182.959,240.621 191,247.5C 197.755,254.689 203.255,262.689 207.5,271.5C 205.821,271.892 204.154,272.392 202.5,273C 185.837,273.5 169.17,273.667 152.5,273.5C 154.572,257.291 159.238,241.958 166.5,227.5 Z"/></g>
<g><path style="opacity:0.999" fill="#b1e3f8" d="M 335.5,234.5 C 336.209,235.404 337.209,235.737 338.5,235.5C 345.167,236.167 351.833,236.833 358.5,237.5C 349.204,239.624 342.371,244.958 338,253.5C 331.201,274.73 338.034,289.563 358.5,298C 377.833,298.333 397.167,298.667 416.5,299C 401.739,303.746 393.739,313.746 392.5,329C 392.397,344.656 399.73,354.823 414.5,359.5C 402.833,360.167 391.167,360.833 379.5,361.5C 367.488,362.999 358.988,369.333 354,380.5C 348.793,401.593 356.293,415.76 376.5,423C 391.83,423.5 407.163,423.667 422.5,423.5C 396.434,461.549 361.434,487.882 317.5,502.5C 318.857,475.023 305.857,462.19 278.5,464C 266.661,468.212 259.328,476.378 256.5,488.5C 255.167,488.5 254.5,487.833 254.5,486.5C 248.99,470.4 237.656,462.734 220.5,463.5C 220.167,463.5 219.833,463.5 219.5,463.5C 206.722,452.393 195.388,440.059 185.5,426.5C 185.204,424.597 184.537,422.93 183.5,421.5C 182.275,415.374 179.275,410.374 174.5,406.5C 170.618,402.723 165.951,400.223 160.5,399C 163.482,398.502 166.482,398.335 169.5,398.5C 198.15,400.019 211.317,386.686 209,358.5C 204.517,345.844 195.683,338.511 182.5,336.5C 172.013,335.506 161.346,335.172 150.5,335.5C 147.605,314.782 147.938,294.115 151.5,273.5C 151.833,273.5 152.167,273.5 152.5,273.5C 169.17,273.667 185.837,273.5 202.5,273C 204.154,272.392 205.821,271.892 207.5,271.5C 216.674,287.849 220.841,305.516 220,324.5C 222.331,339.83 230.831,349.997 245.5,355C 270.48,358.688 285.647,348.188 291,323.5C 290.98,286.206 305.813,256.54 335.5,234.5 Z"/></g>
<g><path style="opacity:1" fill="#a1d694" d="M 338.5,235.5 C 346.507,235.334 354.507,235.5 362.5,236C 361.437,237.188 360.103,237.688 358.5,237.5C 351.833,236.833 345.167,236.167 338.5,235.5 Z"/></g>
<g><path style="opacity:1" fill="#90d7f8" d="M 151.5,273.5 C 147.938,294.115 147.605,314.782 150.5,335.5C 138.829,335.667 127.162,335.5 115.5,335C 129.809,329.856 137.476,319.689 138.5,304.5C 137.128,288.572 128.795,278.405 113.5,274C 126.162,273.5 138.829,273.333 151.5,273.5 Z"/></g>
<g><path style="opacity:1" fill="#9bd069" d="M 182.5,336.5 C 195.683,338.511 204.517,345.844 209,358.5C 211.317,386.686 198.15,400.019 169.5,398.5C 160.037,378.947 153.704,358.447 150.5,337C 161.161,336.5 171.828,336.333 182.5,336.5 Z"/></g>
<g><path style="opacity:1" fill="#a6dbb6" d="M 414.5,359.5 C 415.922,359.709 417.255,360.209 418.5,361C 405.504,361.5 392.504,361.667 379.5,361.5C 391.167,360.833 402.833,360.167 414.5,359.5 Z"/></g>
<g><path style="opacity:1" fill="#98cf72" d="M 174.5,406.5 C 179.275,410.374 182.275,415.374 183.5,421.5C 180.025,418.099 176.858,413.765 174,408.5C 173.308,407.563 173.475,406.897 174.5,406.5 Z"/></g>
<g><path style="opacity:1" fill="#90d8f8" d="M 185.5,426.5 C 195.388,440.059 206.722,452.393 219.5,463.5C 200.227,468.672 191.227,481.339 192.5,501.5C 170.192,494.68 149.858,484.18 131.5,470C 128.043,467.613 125.043,464.78 122.5,461.5C 133.505,461.667 144.505,461.5 155.5,461C 174.925,457.739 184.925,446.239 185.5,426.5 Z"/></g>
<g><path style="opacity:1" fill="#f4f8f8" d="M 220.5,463.5 C 237.656,462.734 248.99,470.4 254.5,486.5C 242.068,480.391 230.735,472.725 220.5,463.5 Z"/></g>
<g><path style="opacity:0.998" fill="#f5f8f8" d="M 317.5,502.5 C 312.543,503.989 307.543,505.322 302.5,506.5C 286.678,501.89 271.345,495.89 256.5,488.5C 259.328,476.378 266.661,468.212 278.5,464C 305.857,462.19 318.857,475.023 317.5,502.5 Z"/></g>
<g><path style="opacity:1" fill="#dddaec" d="M 219.5,463.5 C 219.833,463.5 220.167,463.5 220.5,463.5C 230.735,472.725 242.068,480.391 254.5,486.5C 254.5,487.833 255.167,488.5 256.5,488.5C 271.345,495.89 286.678,501.89 302.5,506.5C 293.437,508.508 284.437,510.175 275.5,511.5C 262.167,511.5 248.833,511.5 235.5,511.5C 220.825,509.698 206.492,506.365 192.5,501.5C 191.227,481.339 200.227,468.672 219.5,463.5 Z"/></g>
</svg>
