<?xml version="1.0" encoding="UTF-8"?>
<!DOCTYPE svg PUBLIC "-//W3C//DTD SVG 1.1//EN" "http://www.w3.org/Graphics/SVG/1.1/DTD/svg11.dtd">
<svg xmlns="http://www.w3.org/2000/svg" version="1.1" width="512px" height="512px" style="shape-rendering:geometricPrecision; text-rendering:geometricPrecision; image-rendering:optimizeQuality; fill-rule:evenodd; clip-rule:evenodd" xmlns:xlink="http://www.w3.org/1999/xlink">
<g><path style="opacity:0.997" fill="#edebfe" d="M 180.5,-0.5 C 190.833,-0.5 201.167,-0.5 211.5,-0.5C 244.413,4.60044 270.579,20.6004 290,47.5C 292.796,51.065 296.462,53.065 301,53.5C 347.571,42.1372 384.238,56.1372 411,95.5C 415.231,103.548 419.064,111.715 422.5,120C 433.7,124.071 444.7,128.737 455.5,134C 490.093,157.438 502.926,189.604 494,230.5C 486.85,247.654 475.35,261.154 459.5,271C 437.361,284.05 413.695,293.383 388.5,299C 326.844,311.06 264.844,314.56 202.5,309.5C 170.985,297.485 147.485,276.485 132,246.5C 120.121,218.494 120.787,190.827 134,163.5C 137,159.167 140,154.833 143,150.5C 144.434,146.594 144.767,142.594 144,138.5C 122.635,105.269 120.968,70.9359 139,35.5C 145.243,24.4414 152.409,14.108 160.5,4.5C 167.214,2.56255 173.881,0.895882 180.5,-0.5 Z"/></g>
<g><path style="opacity:1" fill="#d3d3ff" d="M 160.5,4.5 C 152.409,14.108 145.243,24.4414 139,35.5C 120.968,70.9359 122.635,105.269 144,138.5C 144.767,142.594 144.434,146.594 143,150.5C 140,154.833 137,159.167 134,163.5C 120.787,190.827 120.121,218.494 132,246.5C 147.485,276.485 170.985,297.485 202.5,309.5C 157.139,308.195 113.472,299.028 71.5,282C 55.9965,274.5 42.1632,264.667 30,252.5C 12.2972,230.085 8.63056,205.418 19,178.5C 26.3197,159.695 38.4864,144.862 55.5,134C 63.1094,130.279 70.6094,126.446 78,122.5C 79.2754,120.283 80.2754,117.949 81,115.5C 83.3342,61.0249 109.834,24.0249 160.5,4.5 Z"/></g>
<g><path style="opacity:1" fill="#d3d3ff" d="M 236.5,60.5 C 240.273,60.2633 243.94,60.7633 247.5,62C 251.826,67.0444 251.16,71.3778 245.5,75C 221.576,77.2581 208.743,90.4247 207,114.5C 201.785,119.019 197.451,118.353 194,112.5C 194.782,84.2183 208.949,66.885 236.5,60.5 Z"/></g>
<g><path style="opacity:1" fill="#455562" d="M 183.5,189.5 C 179.571,192.27 175.904,191.937 172.5,188.5C 171.372,181.58 171.205,174.58 172,167.5C 176.333,162.167 180.667,162.167 185,167.5C 185.667,174.167 185.667,180.833 185,187.5C 184.283,188.044 183.783,188.711 183.5,189.5 Z"/></g>
<g><path style="opacity:1" fill="#455562" d="M 338.5,188.5 C 335.096,191.937 331.429,192.27 327.5,189.5C 327.217,188.711 326.717,188.044 326,187.5C 325.333,180.833 325.333,174.167 326,167.5C 330.333,162.167 334.667,162.167 339,167.5C 339.795,174.58 339.628,181.58 338.5,188.5 Z"/></g>
<g><path style="opacity:1" fill="#435561" d="M 243.5,177.5 C 251.507,177.334 259.507,177.5 267.5,178C 272.712,179.017 276.545,181.851 279,186.5C 282.006,204.005 275.172,215.505 258.5,221C 244.533,221.054 235.7,214.221 232,200.5C 228.475,188.882 232.308,181.215 243.5,177.5 Z"/></g>
<g><path style="opacity:1" fill="#fea1ac" d="M 172.5,188.5 C 175.904,191.937 179.571,192.27 183.5,189.5C 202.172,195.833 207.339,207.833 199,225.5C 189.693,234.601 178.526,238.101 165.5,236C 146.131,230.756 139.964,218.923 147,200.5C 153.66,192.587 162.16,188.587 172.5,188.5 Z"/></g>
<g><path style="opacity:1" fill="#fea1ac" d="M 338.5,188.5 C 351.822,188.571 361.322,194.571 367,206.5C 367.933,224.247 359.433,234.08 341.5,236C 327.195,237.93 316.362,232.763 309,220.5C 305.359,204.464 311.525,194.13 327.5,189.5C 331.429,192.27 335.096,191.937 338.5,188.5 Z"/></g>
<g><path style="opacity:0.992" fill="#a2e6ff" d="M 150.5,441.5 C 150.5,440.5 150.5,439.5 150.5,438.5C 121.246,445.062 99.7462,435.062 86,408.5C 78.7598,393.659 75.9265,377.992 77.5,361.5C 81.1577,354.662 85.8244,348.495 91.5,343C 102.088,338.248 111.255,340.081 119,348.5C 127.667,360.5 136.333,372.5 145,384.5C 155.909,402.824 157.743,421.824 150.5,441.5 Z"/></g>
<g><path style="opacity:0.992" fill="#a2e5ff" d="M 457.5,438.5 C 420.132,444.55 396.298,429.217 386,392.5C 383.109,382.15 381.942,371.817 382.5,361.5C 386.908,354.918 391.908,348.751 397.5,343C 408.088,338.248 417.255,340.081 425,348.5C 431.281,357.782 437.948,366.782 445,375.5C 455.039,388.614 460.539,403.448 461.5,420C 461.114,426.497 459.781,432.664 457.5,438.5 Z"/></g>
<g><path style="opacity:1" fill="#5ad5ff" d="M 77.5,361.5 C 75.9265,377.992 78.7598,393.659 86,408.5C 99.7462,435.062 121.246,445.062 150.5,438.5C 150.5,439.5 150.5,440.5 150.5,441.5C 142.864,458.341 129.864,468.507 111.5,472C 74.6224,473.905 53.9557,456.572 49.5,420C 50.0261,408.088 53.1928,396.921 59,386.5C 63,380.5 67,374.5 71,368.5C 72.7186,365.712 74.8852,363.379 77.5,361.5 Z"/></g>
<g><path style="opacity:1" fill="#5ad5ff" d="M 382.5,361.5 C 381.942,371.817 383.109,382.15 386,392.5C 396.298,429.217 420.132,444.55 457.5,438.5C 450.394,456.914 437.061,468.08 417.5,472C 392.299,474.817 373.465,465.317 361,443.5C 353.116,423.102 354.783,403.436 366,384.5C 371.019,376.451 376.519,368.785 382.5,361.5 Z"/></g>
<g><path style="opacity:0.992" fill="#a2e6ff" d="M 304.5,477.5 C 276.842,484.414 255.676,475.748 241,451.5C 232.346,435.578 228.846,418.578 230.5,400.5C 234.206,394.28 238.539,388.447 243.5,383C 254.197,377.181 263.697,378.681 272,387.5C 278.281,396.782 284.948,405.782 292,414.5C 302.037,427.606 307.537,442.439 308.5,459C 308.142,465.511 306.808,471.677 304.5,477.5 Z"/></g>
<g><path style="opacity:1" fill="#5ad5ff" d="M 230.5,400.5 C 228.846,418.578 232.346,435.578 241,451.5C 255.676,475.748 276.842,484.414 304.5,477.5C 297.691,495.978 284.691,507.312 265.5,511.5C 258.833,511.5 252.167,511.5 245.5,511.5C 218.802,504.334 204.469,486.834 202.5,459C 203.463,442.439 208.963,427.606 219,414.5C 222.613,409.579 226.446,404.912 230.5,400.5 Z"/></g>
</svg>
