<?xml version="1.0" encoding="UTF-8"?>
<!DOCTYPE svg PUBLIC "-//W3C//DTD SVG 1.1//EN" "http://www.w3.org/Graphics/SVG/1.1/DTD/svg11.dtd">
<svg xmlns="http://www.w3.org/2000/svg" version="1.1" width="512px" height="512px" style="shape-rendering:geometricPrecision; text-rendering:geometricPrecision; image-rendering:optimizeQuality; fill-rule:evenodd; clip-rule:evenodd" xmlns:xlink="http://www.w3.org/1999/xlink">
<g><path style="opacity:0.994" fill="#eaebeb" d="M 252.5,-0.5 C 263.5,-0.5 274.5,-0.5 285.5,-0.5C 338.945,8.14653 376.111,37.4799 397,87.5C 400.111,95.9435 402.278,104.61 403.5,113.5C 436.99,118.493 460.49,136.493 474,167.5C 486.274,205.236 478.108,237.736 449.5,265C 437.271,275.112 423.271,281.445 407.5,284C 349.19,285.464 290.856,285.964 232.5,285.5C 232.422,277.924 228.755,273.091 221.5,271C 216.167,270.667 210.833,270.333 205.5,270C 208.211,266.078 211.045,262.244 214,258.5C 219.061,248.46 216.561,240.96 206.5,236C 201.56,234.959 196.894,235.626 192.5,238C 184.257,248.488 176.257,259.154 168.5,270C 161.174,270.5 153.841,270.666 146.5,270.5C 146.334,263.159 146.5,255.826 147,248.5C 157.953,240.548 168.62,232.215 179,223.5C 184.26,210.349 179.926,202.682 166,200.5C 158.736,202.403 152.403,206.07 147,211.5C 146.667,206.167 146.333,200.833 146,195.5C 143.909,188.245 139.076,184.578 131.5,184.5C 134.121,144.801 144.955,107.468 164,72.5C 174.698,53.0789 186.864,34.7456 200.5,17.5C 216.721,8.09383 234.054,2.09383 252.5,-0.5 Z"/></g>
<g><path style="opacity:1" fill="#d9d9d9" d="M 200.5,17.5 C 186.864,34.7456 174.698,53.0789 164,72.5C 144.955,107.468 134.121,144.801 131.5,184.5C 125.396,184.468 120.896,187.135 118,192.5C 116.796,198.753 116.129,205.086 116,211.5C 110.48,205.623 103.813,201.957 96,200.5C 82.7876,203.256 78.7876,210.923 84,223.5C 94.3802,232.215 105.047,240.548 116,248.5C 116.5,255.826 116.666,263.159 116.5,270.5C 109.492,270.666 102.492,270.5 95.5,270C 88.6667,260.5 81.8333,251 75,241.5C 67.4102,234.258 59.2435,233.592 50.5,239.5C 32.0299,211.001 27.5299,180.334 37,147.5C 56.2259,97.7712 92.7259,73.2712 146.5,74C 159.229,50.1051 177.229,31.2718 200.5,17.5 Z"/></g>
<g><path style="opacity:1" fill="#484f59" d="M 185.5,103.5 C 189.676,103.168 193.176,104.502 196,107.5C 196.667,113.833 196.667,120.167 196,126.5C 193.442,130.212 189.942,131.378 185.5,130C 183.667,129.5 182.5,128.333 182,126.5C 181.333,120.167 181.333,113.833 182,107.5C 183.376,106.295 184.542,104.962 185.5,103.5 Z"/></g>
<g><path style="opacity:1" fill="#484f58" d="M 319.5,103.5 C 324.023,103.18 327.523,104.846 330,108.5C 330.667,114.5 330.667,120.5 330,126.5C 325.239,131.812 320.572,131.812 316,126.5C 315.333,120.167 315.333,113.833 316,107.5C 317.376,106.295 318.542,104.962 319.5,103.5 Z"/></g>
<g><path style="opacity:1" fill="#49505a" d="M 270.5,114.5 C 278.179,115.018 281.012,119.018 279,126.5C 266.908,138.922 253.408,140.755 238.5,132C 236.194,129.939 234.027,127.772 232,125.5C 231.5,117.344 235.333,114.178 243.5,116C 248.364,121.26 254.364,122.927 261.5,121C 264.567,118.812 267.567,116.645 270.5,114.5 Z"/></g>
<g><path style="opacity:0.982" fill="#8dcdd7" d="M 131.5,184.5 C 139.076,184.578 143.909,188.245 146,195.5C 146.333,200.833 146.667,206.167 147,211.5C 152.403,206.07 158.736,202.403 166,200.5C 179.926,202.682 184.26,210.349 179,223.5C 168.62,232.215 157.953,240.548 147,248.5C 146.5,255.826 146.334,263.159 146.5,270.5C 153.841,270.666 161.174,270.5 168.5,270C 176.257,259.154 184.257,248.488 192.5,238C 196.894,235.626 201.56,234.959 206.5,236C 216.561,240.96 219.061,248.46 214,258.5C 211.045,262.244 208.211,266.078 205.5,270C 210.833,270.333 216.167,270.667 221.5,271C 228.755,273.091 232.422,277.924 232.5,285.5C 232.44,293.061 228.774,297.894 221.5,300C 216.5,300.333 211.5,300.667 206.5,301C 211.974,306.284 215.307,312.617 216.5,320C 215.349,332.135 208.682,337.135 196.5,335C 195.167,334.333 193.833,333.667 192.5,333C 183.785,322.62 175.452,311.953 167.5,301C 160.508,300.5 153.508,300.334 146.5,300.5C 146.334,307.175 146.5,313.842 147,320.5C 156.833,327.667 166.667,334.833 176.5,342C 184.84,351.322 184.174,359.989 174.5,368C 170.259,369.457 165.926,369.791 161.5,369C 156.423,366.42 151.756,363.253 147.5,359.5C 146.671,364.802 146.171,370.136 146,375.5C 142.091,383.871 135.591,387.037 126.5,385C 122,383.167 118.833,380 117,375.5C 116.829,370.136 116.329,364.802 115.5,359.5C 111.244,363.253 106.577,366.42 101.5,369C 89.7129,371.04 82.7129,366.207 80.5,354.5C 81.0281,349.611 83.0281,345.444 86.5,342C 96.3333,334.833 106.167,327.667 116,320.5C 116.5,313.842 116.666,307.175 116.5,300.5C 109.468,300.17 102.468,300.503 95.5,301.5C 88.0754,312.426 80.0754,322.926 71.5,333C 61.6575,337.938 53.8241,335.771 48,326.5C 47.3333,322.5 47.3333,318.5 48,314.5C 50.7976,309.737 53.9643,305.237 57.5,301C 52.1667,300.667 46.8333,300.333 41.5,300C 32.8235,295.81 29.6568,288.976 32,279.5C 34.0073,274.162 37.8406,270.996 43.5,270C 48.1667,269.667 52.8333,269.333 57.5,269C 53.5554,265.054 50.3887,260.554 48,255.5C 46.8334,249.789 47.6668,244.456 50.5,239.5C 59.2435,233.592 67.4102,234.258 75,241.5C 81.8333,251 88.6667,260.5 95.5,270C 102.492,270.5 109.492,270.666 116.5,270.5C 116.666,263.159 116.5,255.826 116,248.5C 105.047,240.548 94.3802,232.215 84,223.5C 78.7876,210.923 82.7876,203.256 96,200.5C 103.813,201.957 110.48,205.623 116,211.5C 116.129,205.086 116.796,198.753 118,192.5C 120.896,187.135 125.396,184.468 131.5,184.5 Z"/></g>
<g><path style="opacity:0.971" fill="#bae8ed" d="M 343.5,511.5 C 339.5,511.5 335.5,511.5 331.5,511.5C 328.569,509.739 326.069,507.406 324,504.5C 322.796,498.247 322.129,491.914 322,485.5C 317.437,489.06 312.604,492.227 307.5,495C 291.726,496.894 285.226,490.061 288,474.5C 288.972,472.695 290.139,471.028 291.5,469.5C 301.577,461.712 311.744,454.045 322,446.5C 322.5,439.842 322.666,433.175 322.5,426.5C 315.825,426.334 309.158,426.5 302.5,427C 294.214,438.287 285.548,449.287 276.5,460C 263.087,464.627 255.087,459.96 252.5,446C 254.605,438.793 258.272,432.459 263.5,427C 257.086,426.871 250.753,426.204 244.5,425C 234.243,415.84 234.243,406.84 244.5,398C 250.725,396.749 257.058,396.083 263.5,396C 258.272,390.541 254.605,384.207 252.5,377C 254.394,364.051 261.727,359.051 274.5,362C 276.305,362.972 277.972,364.139 279.5,365.5C 287.288,375.577 294.955,385.744 302.5,396C 309.158,396.5 315.825,396.666 322.5,396.5C 322.666,389.492 322.5,382.492 322,375.5C 311.922,367.878 301.756,360.378 291.5,353C 284.112,342.558 285.779,333.891 296.5,327C 300.167,326.333 303.833,326.333 307.5,327C 312.604,329.773 317.437,332.94 322,336.5C 322.129,330.086 322.796,323.753 324,317.5C 333,308.167 342,308.167 351,317.5C 352.204,323.753 352.871,330.086 353,336.5C 357.563,332.94 362.396,329.773 367.5,327C 383.168,325.189 389.668,332.022 387,347.5C 385.833,349.333 384.667,351.167 383.5,353C 373.244,360.378 363.078,367.878 353,375.5C 352.5,382.492 352.334,389.492 352.5,396.5C 359.508,396.666 366.508,396.5 373.5,396C 380.667,386.167 387.833,376.333 395,366.5C 405.527,357.885 414.527,359.218 422,370.5C 422.667,374.167 422.667,377.833 422,381.5C 419.227,386.604 416.06,391.437 412.5,396C 418.914,396.129 425.247,396.796 431.5,398C 440.833,407 440.833,416 431.5,425C 425.247,426.204 418.914,426.871 412.5,427C 416.06,431.563 419.227,436.396 422,441.5C 423.789,457.176 416.956,463.676 401.5,461C 399.667,459.833 397.833,458.667 396,457.5C 388.622,447.244 381.122,437.078 373.5,427C 366.508,426.5 359.508,426.334 352.5,426.5C 352.334,433.175 352.5,439.842 353,446.5C 363.256,454.045 373.423,461.712 383.5,469.5C 389.1,476.135 389.6,483.135 385,490.5C 380.078,495.202 374.245,496.702 367.5,495C 362.396,492.227 357.563,489.06 353,485.5C 352.871,491.914 352.204,498.247 351,504.5C 348.931,507.406 346.431,509.739 343.5,511.5 Z"/></g>
</svg>
