<?xml version="1.0" encoding="UTF-8"?>
<!DOCTYPE svg PUBLIC "-//W3C//DTD SVG 1.1//EN" "http://www.w3.org/Graphics/SVG/1.1/DTD/svg11.dtd">
<svg xmlns="http://www.w3.org/2000/svg" version="1.1" width="512px" height="512px" style="shape-rendering:geometricPrecision; text-rendering:geometricPrecision; image-rendering:optimizeQuality; fill-rule:evenodd; clip-rule:evenodd" xmlns:xlink="http://www.w3.org/1999/xlink">
<g><path style="opacity:0.989" fill="#ffb251" d="M 245.5,-0.5 C 252.167,-0.5 258.833,-0.5 265.5,-0.5C 272.44,1.43286 279.107,4.26619 285.5,8C 297.666,18.0019 309.666,28.1685 321.5,38.5C 319.485,39.9238 317.152,40.5905 314.5,40.5C 299.373,44.4861 284.373,48.9861 269.5,54C 260.907,56.7386 252.241,57.0719 243.5,55C 225.897,49.1873 208.231,43.6873 190.5,38.5C 201.678,27.8254 213.345,17.6588 225.5,8C 231.893,4.26619 238.56,1.43286 245.5,-0.5 Z"/></g>
<g><path style="opacity:0.999" fill="#fae977" d="M 363.5,55.5 C 373.133,74.764 383.299,93.764 394,112.5C 397.557,116.025 401.39,119.191 405.5,122C 422.669,130.082 439.335,138.915 455.5,148.5C 468.891,159.293 474.557,173.293 472.5,190.5C 467.311,208.235 461.811,225.901 456,243.5C 454.647,256.772 455.98,269.772 460,282.5C 463.943,291.386 467.61,300.386 471,309.5C 471.936,313.114 472.436,316.78 472.5,320.5C 474.588,337.655 468.921,351.655 455.5,362.5C 439.335,372.085 422.669,380.918 405.5,389C 398.667,393.167 393.167,398.667 389,405.5C 380.729,422.376 372.229,439.043 363.5,455.5C 352.164,468.665 337.831,474.332 320.5,472.5C 285.769,461.138 255.435,442.638 229.5,417C 294.875,424.046 347.708,401.879 388,350.5C 422.473,298.237 427.473,243.237 403,185.5C 374.319,130.216 328.819,99.3829 266.5,93C 254.104,92.3643 241.77,92.6976 229.5,94C 253.983,70.0896 282.316,52.2562 314.5,40.5C 317.152,40.5905 319.485,39.9238 321.5,38.5C 338.119,37.4887 352.119,43.1553 363.5,55.5 Z"/></g>
<g><path style="opacity:0.991" fill="#ffb251" d="M 147.5,55.5 C 137.867,74.764 127.701,93.764 117,112.5C 113.443,116.025 109.61,119.191 105.5,122C 88.6239,130.271 71.9572,138.771 55.5,147.5C 56.8213,131.491 58.3213,115.491 60,99.5C 65.2321,80.6005 77.0654,67.7671 95.5,61C 112.776,58.6159 130.109,56.7826 147.5,55.5 Z"/></g>
<g><path style="opacity:0.99" fill="#fecd6b" d="M 363.5,55.5 C 380.899,56.6974 398.232,58.5307 415.5,61C 433.935,67.7671 445.768,80.6005 451,99.5C 452.729,115.818 454.229,132.151 455.5,148.5C 439.335,138.915 422.669,130.082 405.5,122C 401.39,119.191 397.557,116.025 394,112.5C 383.299,93.764 373.133,74.764 363.5,55.5 Z"/></g>
<g><path style="opacity:1" fill="#fecc6b" d="M 190.5,38.5 C 208.231,43.6873 225.897,49.1873 243.5,55C 252.241,57.0719 260.907,56.7386 269.5,54C 284.373,48.9861 299.373,44.4861 314.5,40.5C 282.316,52.2562 253.983,70.0896 229.5,94C 241.77,92.6976 254.104,92.3643 266.5,93C 328.819,99.3829 374.319,130.216 403,185.5C 427.473,243.237 422.473,298.237 388,350.5C 347.708,401.879 294.875,424.046 229.5,417C 255.435,442.638 285.769,461.138 320.5,472.5C 303.39,467.853 286.39,462.687 269.5,457C 260.918,454.196 252.252,453.863 243.5,456C 225.918,461.805 208.251,467.305 190.5,472.5C 173.144,474.317 158.811,468.65 147.5,455.5C 137.867,436.236 127.701,417.236 117,398.5C 113.443,394.975 109.61,391.809 105.5,389C 88.3313,380.918 71.6646,372.085 55.5,362.5C 42.1092,351.707 36.4426,337.707 38.5,320.5C 43.1522,303.374 48.3189,286.374 54,269.5C 56.7386,260.907 57.0719,252.241 55,243.5C 49.1873,225.897 43.6873,208.231 38.5,190.5C 36.6679,173.169 42.3346,158.836 55.5,147.5C 71.9572,138.771 88.6239,130.271 105.5,122C 109.61,119.191 113.443,116.025 117,112.5C 127.701,93.764 137.867,74.764 147.5,55.5C 158.836,42.3346 173.169,36.6679 190.5,38.5 Z"/></g>
<g><path style="opacity:1" fill="#ffb251" d="M 162.5,240.5 C 144.72,243.429 136.553,253.762 138,271.5C 143.069,283.067 151.903,289.401 164.5,290.5C 171.902,338.637 192.568,379.97 226.5,414.5C 216.646,413.959 206.979,411.792 197.5,408C 130.054,378.324 95.0536,326.49 92.5,252.5C 95.5436,191.692 122.877,145.525 174.5,114C 191.26,104.251 208.926,98.0845 227.5,95.5C 187.66,135.526 165.993,183.859 162.5,240.5 Z"/></g>
<g><path style="opacity:0.991" fill="#fecd6a" d="M 472.5,190.5 C 483.175,201.678 493.341,213.345 503,225.5C 506.734,231.893 509.567,238.56 511.5,245.5C 511.5,252.167 511.5,258.833 511.5,265.5C 509.567,272.44 506.734,279.107 503,285.5C 493.341,297.655 483.175,309.322 472.5,320.5C 472.436,316.78 471.936,313.114 471,309.5C 467.61,300.386 463.943,291.386 460,282.5C 455.98,269.772 454.647,256.772 456,243.5C 461.811,225.901 467.311,208.235 472.5,190.5 Z"/></g>
<g><path style="opacity:0.989" fill="#ffb251" d="M 38.5,190.5 C 43.6873,208.231 49.1873,225.897 55,243.5C 57.0719,252.241 56.7386,260.907 54,269.5C 48.3189,286.374 43.1522,303.374 38.5,320.5C 27.8254,309.322 17.6588,297.655 8,285.5C 4.26619,279.107 1.43286,272.44 -0.5,265.5C -0.5,258.833 -0.5,252.167 -0.5,245.5C 1.43286,238.56 4.26619,231.893 8,225.5C 17.6588,213.345 27.8254,201.678 38.5,190.5 Z"/></g>
<g><path style="opacity:1" fill="#4d5760" d="M 181.5,241.5 C 178.222,243.107 175.222,242.773 172.5,240.5C 168.598,234.542 168.765,228.542 173,222.5C 185.333,209.167 197.667,209.167 210,222.5C 213.758,227.949 214.258,233.616 211.5,239.5C 207.001,243.67 202.834,243.336 199,238.5C 198.723,229.359 194.557,226.692 186.5,230.5C 184.929,232.882 184.096,235.549 184,238.5C 182.955,239.373 182.122,240.373 181.5,241.5 Z"/></g>
<g><path style="opacity:1" fill="#4d5860" d="M 338.5,239.5 C 336.003,241.871 333.003,242.871 329.5,242.5C 326.086,239.673 324.253,236.006 324,231.5C 320.61,227.968 316.943,227.634 313,230.5C 312.236,234.355 310.736,237.855 308.5,241C 300.885,243.855 296.885,241.189 296.5,233C 297.773,223.137 303.106,216.47 312.5,213C 327.81,211.32 337.143,217.987 340.5,233C 340.518,235.41 339.851,237.577 338.5,239.5 Z"/></g>
<g><path style="opacity:1" fill="#4b5660" d="M 249.5,227.5 C 265.898,226.399 273.398,234.065 272,250.5C 267.564,263.421 259.064,267.254 246.5,262C 235.05,249.336 236.05,237.836 249.5,227.5 Z"/></g>
<g><path style="opacity:1" fill="#fffefd" d="M 162.5,240.5 C 165.833,240.5 169.167,240.5 172.5,240.5C 175.222,242.773 178.222,243.107 181.5,241.5C 201.917,250.162 205.917,263.662 193.5,282C 184.922,288.396 175.256,291.229 164.5,290.5C 151.903,289.401 143.069,283.067 138,271.5C 136.553,253.762 144.72,243.429 162.5,240.5 Z"/></g>
<g><path style="opacity:1" fill="#fffefd" d="M 338.5,239.5 C 352.963,239.022 364.13,244.688 372,256.5C 375.359,275.187 367.525,286.353 348.5,290C 334.391,292.682 322.891,288.516 314,277.5C 306.608,260.283 311.775,248.617 329.5,242.5C 333.003,242.871 336.003,241.871 338.5,239.5 Z"/></g>
<g><path style="opacity:0.99" fill="#fecd6a" d="M 455.5,362.5 C 454.229,378.849 452.729,395.182 451,411.5C 445.768,430.4 433.935,443.233 415.5,450C 398.224,452.384 380.891,454.217 363.5,455.5C 372.229,439.043 380.729,422.376 389,405.5C 393.167,398.667 398.667,393.167 405.5,389C 422.669,380.918 439.335,372.085 455.5,362.5 Z"/></g>
<g><path style="opacity:0.989" fill="#ffb251" d="M 55.5,362.5 C 71.6646,372.085 88.3313,380.918 105.5,389C 109.61,391.809 113.443,394.975 117,398.5C 127.701,417.236 137.867,436.236 147.5,455.5C 130.109,454.217 112.776,452.384 95.5,450C 77.0654,443.233 65.2321,430.4 60,411.5C 58.2705,395.182 56.7705,378.849 55.5,362.5 Z"/></g>
<g><path style="opacity:0.989" fill="#ffb251" d="M 320.5,472.5 C 309.322,483.175 297.655,493.341 285.5,503C 279.107,506.734 272.44,509.567 265.5,511.5C 258.833,511.5 252.167,511.5 245.5,511.5C 238.56,509.567 231.893,506.734 225.5,503C 213.345,493.341 201.678,483.175 190.5,472.5C 208.251,467.305 225.918,461.805 243.5,456C 252.252,453.863 260.918,454.196 269.5,457C 286.39,462.687 303.39,467.853 320.5,472.5 Z"/></g>
</svg>
