<?xml version="1.0" encoding="UTF-8"?>
<!DOCTYPE svg PUBLIC "-//W3C//DTD SVG 1.1//EN" "http://www.w3.org/Graphics/SVG/1.1/DTD/svg11.dtd">
<svg xmlns="http://www.w3.org/2000/svg" version="1.1" width="512px" height="512px" style="shape-rendering:geometricPrecision; text-rendering:geometricPrecision; image-rendering:optimizeQuality; fill-rule:evenodd; clip-rule:evenodd" xmlns:xlink="http://www.w3.org/1999/xlink">
<g><path style="opacity:0.989" fill="#feb357" d="M 157.5,-0.5 C 162.167,-0.5 166.833,-0.5 171.5,-0.5C 174.234,0.704964 176.901,2.20496 179.5,4C 187.018,11.0188 194.685,17.8522 202.5,24.5C 213.257,21.8484 224.091,19.5151 235,17.5C 246.089,18.5952 253.756,24.2619 258,34.5C 260.601,43.6366 263.601,52.6366 267,61.5C 277.075,65.192 287.242,68.692 297.5,72C 306.183,76.6905 310.516,84.0239 310.5,94C 309.2,104.333 307.2,114.5 304.5,124.5C 298.537,128.487 292.537,132.487 286.5,136.5C 273.81,89.4757 244.143,58.809 197.5,44.5C 146.5,32.1089 103.333,45.4423 68,84.5C 36.18,126.255 30.8467,171.255 52,219.5C 81.3731,271.438 125.873,294.105 185.5,287.5C 189.826,294.162 194.159,300.828 198.5,307.5C 191.371,313.458 184.371,319.625 177.5,326C 167.999,330.876 158.665,330.542 149.5,325C 142.167,318.333 134.833,311.667 127.5,305C 116.219,306.816 104.886,308.649 93.5,310.5C 83.7243,310.367 76.5576,306.033 72,297.5C 68.6667,287.5 65.3333,277.5 62,267.5C 50.839,263.335 39.6723,259.168 28.5,255C 22.108,250.092 18.4414,243.592 17.5,235.5C 19.4516,224.408 21.7849,213.408 24.5,202.5C 17.8522,194.685 11.0188,187.018 4,179.5C 2.20496,176.901 0.704964,174.234 -0.5,171.5C -0.5,166.833 -0.5,162.167 -0.5,157.5C 0.620727,155.259 1.78739,152.925 3,150.5C 10.5522,142.618 17.7189,134.452 24.5,126C 21.9297,115.219 19.5964,104.385 17.5,93.5C 18.5442,82.8994 23.8775,75.3994 33.5,71C 42.8951,68.2017 52.2284,65.2017 61.5,62C 65.0601,52.6531 68.2267,43.1531 71,33.5C 75.3994,23.8775 82.8994,18.5442 93.5,17.5C 104.385,19.5964 115.219,21.9297 126,24.5C 134.452,17.7189 142.618,10.5522 150.5,3C 152.925,1.78739 155.259,0.620727 157.5,-0.5 Z"/></g>
<g><path style="opacity:1" fill="#fecd71" d="M 197.5,44.5 C 165.165,54.6658 140.332,74.3325 123,103.5C 119.653,109.188 117.153,115.188 115.5,121.5C 110.999,117.541 106.499,117.541 102,121.5C 101.501,126.823 101.334,132.156 101.5,137.5C 91.1938,137.733 83.6938,142.4 79,151.5C 77.6116,161.889 81.7783,169.056 91.5,173C 96.7364,174.339 102.07,174.839 107.5,174.5C 113.442,223.098 138.442,257.765 182.5,278.5C 184.072,281.215 185.072,284.215 185.5,287.5C 125.873,294.105 81.3731,271.438 52,219.5C 30.8467,171.255 36.18,126.255 68,84.5C 103.333,45.4423 146.5,32.1089 197.5,44.5 Z"/></g>
<g><path style="opacity:1" fill="#fbe29f" d="M 197.5,44.5 C 244.143,58.809 273.81,89.4757 286.5,136.5C 269.498,149.512 257.498,166.178 250.5,186.5C 217.774,188.724 195.274,205.057 183,235.5C 178.502,249.788 178.336,264.121 182.5,278.5C 138.442,257.765 113.442,223.098 107.5,174.5C 122.393,170.708 127.226,161.708 122,147.5C 119.894,144.882 117.394,142.882 114.5,141.5C 116.742,134.959 117.075,128.292 115.5,121.5C 117.153,115.188 119.653,109.188 123,103.5C 140.332,74.3325 165.165,54.6658 197.5,44.5 Z"/></g>
<g><path style="opacity:0.999" fill="#b9bbbb" d="M 377.5,118.5 C 331.03,132.426 304.364,163.426 297.5,211.5C 293.906,209.919 290.739,210.586 288,213.5C 286.596,219.044 286.096,224.71 286.5,230.5C 274.109,230.565 266.443,236.565 263.5,248.5C 266.215,260.706 273.881,267.039 286.5,267.5C 293.14,267.287 299.14,265.287 304.5,261.5C 321.667,301.09 351.667,323.757 394.5,329.5C 343.499,329.667 292.499,329.5 241.5,329C 224.681,326.591 210.348,319.424 198.5,307.5C 194.159,300.828 189.826,294.162 185.5,287.5C 185.072,284.215 184.072,281.215 182.5,278.5C 178.336,264.121 178.502,249.788 183,235.5C 195.274,205.057 217.774,188.724 250.5,186.5C 257.498,166.178 269.498,149.512 286.5,136.5C 292.537,132.487 298.537,128.487 304.5,124.5C 328.313,114.257 352.646,112.257 377.5,118.5 Z"/></g>
<g><path style="opacity:1" fill="#343f41" d="M 115.5,121.5 C 117.075,128.292 116.742,134.959 114.5,141.5C 110.664,144.112 106.831,144.112 103,141.5C 102.209,140.255 101.709,138.922 101.5,137.5C 101.334,132.156 101.501,126.823 102,121.5C 106.499,117.541 110.999,117.541 115.5,121.5 Z"/></g>
<g><path style="opacity:1" fill="#333e41" d="M 227.5,138.5 C 224.167,143.833 219.833,144.833 214.5,141.5C 214.217,140.711 213.717,140.044 213,139.5C 212.333,133.833 212.333,128.167 213,122.5C 215.513,118.788 219.013,117.622 223.5,119C 225,119.833 226.167,121 227,122.5C 227.499,127.823 227.666,133.156 227.5,138.5 Z"/></g>
<g><path style="opacity:0.998" fill="#d3d3d4" d="M 377.5,118.5 C 410.466,126.955 434.299,146.621 449,177.5C 455.013,191.554 458.18,206.22 458.5,221.5C 486.518,223.863 504.185,238.529 511.5,265.5C 511.5,272.5 511.5,279.5 511.5,286.5C 505.459,310.039 490.459,324.206 466.5,329C 442.502,329.5 418.502,329.667 394.5,329.5C 351.667,323.757 321.667,301.09 304.5,261.5C 313.368,250.71 312.035,241.376 300.5,233.5C 301.624,227.248 301.79,220.915 301,214.5C 299.961,213.29 298.794,212.29 297.5,211.5C 304.364,163.426 331.03,132.426 377.5,118.5 Z"/></g>
<g><path style="opacity:1" fill="#354041" d="M 145.5,136.5 C 147.989,136.298 150.323,136.798 152.5,138C 157.151,146.747 163.817,148.747 172.5,144C 176.154,135.67 181.321,134.504 188,140.5C 188.488,149.731 184.321,156.231 175.5,160C 162.277,164.925 151.444,161.758 143,150.5C 139.161,144.87 139.994,140.203 145.5,136.5 Z"/></g>
<g><path style="opacity:1" fill="#fe8e9d" d="M 101.5,137.5 C 101.709,138.922 102.209,140.255 103,141.5C 106.831,144.112 110.664,144.112 114.5,141.5C 117.394,142.882 119.894,144.882 122,147.5C 127.226,161.708 122.393,170.708 107.5,174.5C 102.07,174.839 96.7364,174.339 91.5,173C 81.7783,169.056 77.6116,161.889 79,151.5C 83.6938,142.4 91.1938,137.733 101.5,137.5 Z"/></g>
<g><path style="opacity:1" fill="#fe8f9d" d="M 227.5,138.5 C 239.916,138.596 247.583,144.596 250.5,156.5C 248.643,167.189 242.31,173.356 231.5,175C 220.823,176.558 212.323,173.058 206,164.5C 201.596,154.215 204.429,146.549 214.5,141.5C 219.833,144.833 224.167,143.833 227.5,138.5 Z"/></g>
<g><path style="opacity:1" fill="#333f42" d="M 297.5,211.5 C 298.794,212.29 299.961,213.29 301,214.5C 301.79,220.915 301.624,227.248 300.5,233.5C 294.595,238.119 289.928,237.119 286.5,230.5C 286.096,224.71 286.596,219.044 288,213.5C 290.739,210.586 293.906,209.919 297.5,211.5 Z"/></g>
<g><path style="opacity:1" fill="#364144" d="M 412.5,231.5 C 409.142,236.705 404.808,237.705 399.5,234.5C 397.522,228.341 397.022,222.007 398,215.5C 403.38,208.703 408.38,209.036 413,216.5C 413.778,221.584 413.611,226.584 412.5,231.5 Z"/></g>
<g><path style="opacity:1" fill="#333e41" d="M 330.5,229.5 C 333.32,229.248 335.986,229.748 338.5,231C 342.796,239.655 349.129,241.655 357.5,237C 359.081,235.172 360.415,233.172 361.5,231C 372.917,228.42 376.417,232.587 372,243.5C 364.395,252.926 354.562,256.426 342.5,254C 335.457,251.621 330.29,247.121 327,240.5C 325.663,235.872 326.83,232.205 330.5,229.5 Z"/></g>
<g><path style="opacity:1" fill="#fd8e9e" d="M 286.5,230.5 C 289.928,237.119 294.595,238.119 300.5,233.5C 312.035,241.376 313.368,250.71 304.5,261.5C 299.14,265.287 293.14,267.287 286.5,267.5C 273.881,267.039 266.215,260.706 263.5,248.5C 266.443,236.565 274.109,230.565 286.5,230.5 Z"/></g>
<g><path style="opacity:1" fill="#fe8e9e" d="M 412.5,231.5 C 422.647,231.322 430.147,235.655 435,244.5C 436.481,257.015 430.981,264.515 418.5,267C 407.902,269.441 399.068,266.608 392,258.5C 386.803,248.005 389.303,240.005 399.5,234.5C 404.808,237.705 409.142,236.705 412.5,231.5 Z"/></g>
<g><path style="opacity:0.985" fill="#7be3ff" d="M 298.5,354.5 C 308.974,353.143 312.974,357.643 310.5,368C 310.935,385.096 306.768,400.929 298,415.5C 286.703,427.687 273.203,430.853 257.5,425C 239.853,415.03 234.186,400.363 240.5,381C 245.365,371.137 253.032,364.47 263.5,361C 275.076,357.566 286.743,355.4 298.5,354.5 Z"/></g>
<g><path style="opacity:0.979" fill="#7be3ff" d="M 385.5,360.5 C 390.179,360.334 394.845,360.501 399.5,361C 402.455,376.917 399.955,392.083 392,406.5C 381.291,417.609 369.125,419.443 355.5,412C 341.984,398.945 341.317,385.278 353.5,371C 363.455,365.018 374.122,361.518 385.5,360.5 Z"/></g>
<g><path style="opacity:0.96" fill="#b9f0ff" d="M 171.5,374.5 C 174.85,374.335 178.183,374.502 181.5,375C 182,375.5 182.5,376 183,376.5C 183.62,386.875 181.953,396.875 178,406.5C 170.176,417.223 160.343,419.389 148.5,413C 141.003,405.263 139.503,396.43 144,386.5C 146.592,383.238 149.759,380.738 153.5,379C 159.52,377.036 165.52,375.536 171.5,374.5 Z"/></g>
<g><path style="opacity:0.984" fill="#7be3ff" d="M 98.5,511.5 C 92.8333,511.5 87.1667,511.5 81.5,511.5C 59.0793,501.983 51.9127,485.65 60,462.5C 67.98,450.747 79.1467,443.913 93.5,442C 104.74,439.75 116.074,439.084 127.5,440C 130.316,457.97 128.15,475.47 121,492.5C 116.098,502.018 108.598,508.351 98.5,511.5 Z"/></g>
<g><path style="opacity:0.979" fill="#7be3ff" d="M 206.5,444.5 C 210.182,444.335 213.848,444.501 217.5,445C 220.655,459.94 218.821,474.44 212,488.5C 202.228,501.105 190.061,503.938 175.5,497C 163.232,487.512 160.399,475.678 167,461.5C 170.571,456.124 175.405,452.291 181.5,450C 189.781,447.294 198.114,445.46 206.5,444.5 Z"/></g>
<g><path style="opacity:0.972" fill="#b9f0ff" d="M 304.5,511.5 C 299.5,511.5 294.5,511.5 289.5,511.5C 271.927,503.639 266.76,490.639 274,472.5C 277.571,467.124 282.405,463.291 288.5,461C 298.567,457.687 308.9,455.853 319.5,455.5C 322.011,455.288 324.178,455.955 326,457.5C 327.829,473.536 324.829,488.536 317,502.5C 313.349,506.391 309.182,509.391 304.5,511.5 Z"/></g>
<g><path style="opacity:0.973" fill="#7be3ff" d="M 410.5,458.5 C 417.807,456.816 420.807,459.649 419.5,467C 419.997,478.374 416.663,488.374 409.5,497C 394.766,504.424 384.266,500.591 378,485.5C 376.369,474.694 380.535,467.194 390.5,463C 397.145,460.774 403.811,459.274 410.5,458.5 Z"/></g>
</svg>
