<?xml version="1.0" encoding="UTF-8"?>
<!DOCTYPE svg PUBLIC "-//W3C//DTD SVG 1.1//EN" "http://www.w3.org/Graphics/SVG/1.1/DTD/svg11.dtd">
<svg xmlns="http://www.w3.org/2000/svg" version="1.1" width="512px" height="512px" style="shape-rendering:geometricPrecision; text-rendering:geometricPrecision; image-rendering:optimizeQuality; fill-rule:evenodd; clip-rule:evenodd" xmlns:xlink="http://www.w3.org/1999/xlink">
<g><path style="opacity:0.996" fill="#636978" d="M 239.5,-0.5 C 250.167,-0.5 260.833,-0.5 271.5,-0.5C 329.697,10.1945 365.197,44.5278 378,102.5C 379.052,109.128 379.552,115.794 379.5,122.5C 417.945,124.802 444.112,143.802 458,179.5C 462.559,194.476 463.059,209.476 459.5,224.5C 469.864,225.129 480.197,225.962 490.5,227C 501.51,230.917 508.51,238.417 511.5,249.5C 511.5,254.833 511.5,260.167 511.5,265.5C 507.353,278.143 498.686,285.643 485.5,288C 423.501,288.5 361.501,288.667 299.5,288.5C 273.295,284.889 254.962,270.889 244.5,246.5C 213.642,243.402 187.642,230.736 166.5,208.5C 178.502,210.44 189.002,207.44 198,199.5C 206.034,188.049 205.201,177.382 195.5,167.5C 196.504,166.317 197.338,164.984 198,163.5C 198.173,159.459 198.673,155.459 199.5,151.5C 207.693,153.141 211.193,149.807 210,141.5C 208.981,140.313 207.814,139.313 206.5,138.5C 197.172,135.835 187.839,133.168 178.5,130.5C 171.274,132.828 169.607,137.328 173.5,144C 176.327,145.623 179.327,146.79 182.5,147.5C 183.493,152.12 183.827,156.786 183.5,161.5C 167.055,158.085 154.055,163.085 144.5,176.5C 136.11,159.566 131.777,141.566 131.5,122.5C 133.469,73.6987 155.469,37.1987 197.5,13C 211.005,6.5524 225.005,2.0524 239.5,-0.5 Z"/></g>
<g><path style="opacity:1" fill="#555a66" d="M 131.5,122.5 C 131.777,141.566 136.11,159.566 144.5,176.5C 141.828,193.856 149.161,204.523 166.5,208.5C 187.642,230.736 213.642,243.402 244.5,246.5C 254.962,270.889 273.295,284.889 299.5,288.5C 208.166,288.667 116.833,288.5 25.5,288C 12.314,285.643 3.64729,278.143 -0.5,265.5C -0.5,259.833 -0.5,254.167 -0.5,248.5C 2.88867,237.943 9.88867,230.776 20.5,227C 30.8029,225.962 41.1362,225.129 51.5,224.5C 43.952,180.762 59.952,148.929 99.5,129C 109.755,124.849 120.422,122.682 131.5,122.5 Z"/></g>
<g><path style="opacity:1" fill="#fcfcfc" d="M 195.5,167.5 C 189.305,169.736 185.305,167.736 183.5,161.5C 183.827,156.786 183.493,152.12 182.5,147.5C 179.327,146.79 176.327,145.623 173.5,144C 169.607,137.328 171.274,132.828 178.5,130.5C 187.839,133.168 197.172,135.835 206.5,138.5C 207.814,139.313 208.981,140.313 210,141.5C 211.193,149.807 207.693,153.141 199.5,151.5C 198.673,155.459 198.173,159.459 198,163.5C 197.338,164.984 196.504,166.317 195.5,167.5 Z"/></g>
<g><path style="opacity:1" fill="#fbfbfc" d="M 327.5,161.5 C 325.695,167.736 321.695,169.736 315.5,167.5C 314.496,166.317 313.662,164.984 313,163.5C 312.827,159.459 312.327,155.459 311.5,151.5C 303.357,153.192 299.857,149.859 301,141.5C 302.167,140.333 303.333,139.167 304.5,138C 313.616,135.361 322.783,132.861 332,130.5C 339.451,132.203 341.451,136.536 338,143.5C 334.942,145.575 331.608,146.908 328,147.5C 327.501,152.155 327.334,156.821 327.5,161.5 Z"/></g>
<g><path style="opacity:1" fill="#fafafa" d="M 250.5,153.5 C 260.4,152.644 269.067,155.477 276.5,162C 279.803,165.795 280.303,169.962 278,174.5C 272.185,177.776 267.351,176.61 263.5,171C 258.924,169.524 254.257,169.19 249.5,170C 246.833,172 244.167,174 241.5,176C 235.31,177.581 231.976,175.248 231.5,169C 231.384,166.456 232.217,164.289 234,162.5C 239.076,158.548 244.576,155.548 250.5,153.5 Z"/></g>
<g><path style="opacity:1" fill="#fda0ab" d="M 183.5,161.5 C 185.305,167.736 189.305,169.736 195.5,167.5C 205.201,177.382 206.034,188.049 198,199.5C 189.002,207.44 178.502,210.44 166.5,208.5C 149.161,204.523 141.828,193.856 144.5,176.5C 154.055,163.085 167.055,158.085 183.5,161.5 Z"/></g>
<g><path style="opacity:1" fill="#fda0ab" d="M 315.5,167.5 C 321.695,169.736 325.695,167.736 327.5,161.5C 342.717,158.373 355.217,162.707 365,174.5C 370.287,191.748 364.12,202.914 346.5,208C 334.143,210.493 323.143,207.827 313.5,200C 304.925,188.513 305.591,177.68 315.5,167.5 Z"/></g>
<g><path style="opacity:0.987" fill="#fcee92" d="M 95.5,328.5 C 105.506,328.334 115.506,328.5 125.5,329C 132.249,331.131 135.916,335.798 136.5,343C 132.027,355.116 126.86,366.949 121,378.5C 120.101,383.802 121.601,388.302 125.5,392C 130.71,394.043 136.043,395.709 141.5,397C 148.619,403.252 149.785,410.419 145,418.5C 117.633,447.365 90.1331,476.032 62.5,504.5C 73.1559,480.881 83.8226,457.214 94.5,433.5C 93.8397,426.008 89.8397,421.508 82.5,420C 77.8333,419.667 73.1667,419.333 68.5,419C 61.933,414.979 59.433,409.146 61,401.5C 72.802,377.236 84.302,352.902 95.5,328.5 Z"/></g>
<g><path style="opacity:0.986" fill="#fcee92" d="M 270.5,328.5 C 280.172,328.334 289.839,328.5 299.5,329C 308.782,331.821 312.282,337.988 310,347.5C 305.333,357.5 300.667,367.5 296,377.5C 294.466,383.899 296.299,389.065 301.5,393C 305.698,394.507 310.032,395.507 314.5,396C 321.236,399.976 323.736,405.809 322,413.5C 321.099,416.071 319.766,418.404 318,420.5C 290.603,448.395 263.436,476.395 236.5,504.5C 246.382,483.067 256.549,461.734 267,440.5C 270.918,430.84 268.085,424.006 258.5,420C 252.722,419.906 247.056,419.239 241.5,418C 235.945,413.422 234.112,407.588 236,400.5C 247.8,376.569 259.3,352.569 270.5,328.5 Z"/></g>
<g><path style="opacity:0.987" fill="#fcee92" d="M 444.5,328.5 C 454.506,328.334 464.506,328.5 474.5,329C 482.982,331.793 486.482,337.626 485,346.5C 479.69,358.285 474.523,370.118 469.5,382C 472.057,391.533 478.391,396.2 488.5,396C 497.492,400.983 499.659,408.15 495,417.5C 466.966,447.032 438.8,476.365 410.5,505.5C 420.716,483.4 431.216,461.4 442,439.5C 445.066,430.463 442.233,423.963 433.5,420C 428.5,419.667 423.5,419.333 418.5,419C 411.833,415.501 409,410.001 410,402.5C 421.774,377.952 433.274,353.285 444.5,328.5 Z"/></g>
<g><path style="opacity:1" fill="#fed883" d="M 95.5,328.5 C 84.302,352.902 72.802,377.236 61,401.5C 59.433,409.146 61.933,414.979 68.5,419C 73.1667,419.333 77.8333,419.667 82.5,420C 89.8397,421.508 93.8397,426.008 94.5,433.5C 83.8226,457.214 73.1559,480.881 62.5,504.5C 59.6983,507.642 56.365,509.975 52.5,511.5C 48.1667,511.5 43.8333,511.5 39.5,511.5C 27.0835,506.34 22.2502,497.007 25,483.5C 31.8071,468.747 38.8071,454.081 46,439.5C 48.9687,431.066 46.4687,424.899 38.5,421C 31.9726,421.013 25.6392,420.013 19.5,418C 14.6884,413.899 12.8551,408.732 14,402.5C 24.0606,380.712 34.3939,359.045 45,337.5C 48.3126,332.761 52.8126,329.928 58.5,329C 70.8288,328.5 83.1622,328.333 95.5,328.5 Z"/></g>
<g><path style="opacity:1" fill="#fed883" d="M 270.5,328.5 C 259.3,352.569 247.8,376.569 236,400.5C 234.112,407.588 235.945,413.422 241.5,418C 247.056,419.239 252.722,419.906 258.5,420C 268.085,424.006 270.918,430.84 267,440.5C 256.549,461.734 246.382,483.067 236.5,504.5C 234.043,507.558 231.043,509.892 227.5,511.5C 222.833,511.5 218.167,511.5 213.5,511.5C 199.246,503.852 195.412,492.519 202,477.5C 209.659,463.184 216.492,448.517 222.5,433.5C 219.188,422.079 211.522,417.579 199.5,420C 190.218,417.179 186.718,411.012 189,401.5C 199.255,378.49 210.422,355.99 222.5,334C 225.789,331.522 229.456,329.856 233.5,329C 245.829,328.5 258.162,328.333 270.5,328.5 Z"/></g>
<g><path style="opacity:1" fill="#fed883" d="M 444.5,328.5 C 433.274,353.285 421.774,377.952 410,402.5C 409,410.001 411.833,415.501 418.5,419C 423.5,419.333 428.5,419.667 433.5,420C 442.233,423.963 445.066,430.463 442,439.5C 431.216,461.4 420.716,483.4 410.5,505.5C 408.191,507.987 405.524,509.987 402.5,511.5C 397.833,511.5 393.167,511.5 388.5,511.5C 376.904,506.317 372.071,497.317 374,484.5C 381.06,468.713 388.393,453.046 396,437.5C 397.527,429.72 394.694,424.22 387.5,421C 380.466,421.284 373.799,419.951 367.5,417C 363.232,412.1 362.065,406.6 364,400.5C 374.333,379.167 384.667,357.833 395,336.5C 398.421,332.743 402.588,330.243 407.5,329C 419.829,328.5 432.162,328.333 444.5,328.5 Z"/></g>
</svg>
