<?xml version="1.0" encoding="UTF-8"?>
<!DOCTYPE svg PUBLIC "-//W3C//DTD SVG 1.1//EN" "http://www.w3.org/Graphics/SVG/1.1/DTD/svg11.dtd">
<svg xmlns="http://www.w3.org/2000/svg" version="1.1" width="512px" height="512px" style="shape-rendering:geometricPrecision; text-rendering:geometricPrecision; image-rendering:optimizeQuality; fill-rule:evenodd; clip-rule:evenodd" xmlns:xlink="http://www.w3.org/1999/xlink">
<g><path style="opacity:0.995" fill="#eaebeb" d="M 511.5,257.5 C 511.5,265.833 511.5,274.167 511.5,282.5C 506.801,307.236 494.467,327.236 474.5,342.5C 467.076,327.909 456.076,316.742 441.5,309C 419.313,299.942 400.147,304.109 384,321.5C 381.94,324.286 380.44,327.286 379.5,330.5C 398.742,329.097 410.075,337.764 413.5,356.5C 361.167,356.5 308.833,356.5 256.5,356.5C 238.097,345.772 222.097,332.106 208.5,315.5C 230.511,316.602 250.845,311.435 269.5,300C 289.975,282.618 297.142,260.785 291,234.5C 280.955,203.73 259.789,189.23 227.5,191C 218.384,193.789 210.55,198.622 204,205.5C 203.51,206.793 203.343,208.127 203.5,209.5C 220.449,210.948 229.449,220.115 230.5,237C 229.484,257.843 218.484,267.677 197.5,266.5C 192.233,266.713 187.233,266.046 182.5,264.5C 176.845,232.534 179.345,201.2 190,170.5C 200.595,140.306 215.095,112.306 233.5,86.5C 266.358,68.6274 301.025,64.4607 337.5,74C 377.444,86.2841 406.61,111.117 425,148.5C 429.872,159.783 433.539,171.45 436,183.5C 477.745,191.374 502.912,216.04 511.5,257.5 Z"/></g>
<g><path style="opacity:1" fill="#d9d9d9" d="M 233.5,86.5 C 215.095,112.306 200.595,140.306 190,170.5C 179.345,201.2 176.845,232.534 182.5,264.5C 178.514,263.671 174.514,262.837 170.5,262C 151.115,254.205 131.448,247.205 111.5,241C 95.239,237.126 78.9057,236.626 62.5,239.5C 69.2248,194.231 94.2248,164.065 137.5,149C 150.352,145.615 163.352,144.282 176.5,145C 189.995,120.007 208.995,100.507 233.5,86.5 Z"/></g>
<g><path style="opacity:1" fill="#494f59" d="M 245.5,124.5 C 247.857,124.337 250.19,124.503 252.5,125C 254.333,125.5 255.5,126.667 256,128.5C 256.667,134.167 256.667,139.833 256,145.5C 250.919,150.986 246.252,150.653 242,144.5C 241.333,139.167 241.333,133.833 242,128.5C 243.376,127.295 244.542,125.962 245.5,124.5 Z"/></g>
<g><path style="opacity:1" fill="#484f59" d="M 356.5,124.5 C 358.857,124.337 361.19,124.503 363.5,125C 365.333,125.5 366.5,126.667 367,128.5C 367.667,134.167 367.667,139.833 367,145.5C 364.398,149.212 360.898,150.378 356.5,149C 354.513,147.681 353.346,145.848 353,143.5C 352.333,138.5 352.333,133.5 353,128.5C 354.376,127.295 355.542,125.962 356.5,124.5 Z"/></g>
<g><path style="opacity:1" fill="#484f59" d="M 288.5,133.5 C 294.127,135.06 299.627,137.06 305,139.5C 308.992,138.587 312.492,136.754 315.5,134C 323.161,133.33 326.327,136.83 325,144.5C 321.629,149.777 316.796,152.943 310.5,154C 299.636,156.379 290.802,153.213 284,144.5C 282.393,139.438 283.893,135.772 288.5,133.5 Z"/></g>
<g><path style="opacity:0.995" fill="#8dcdd7" d="M 208.5,315.5 C 186.031,315.067 165.031,309.234 145.5,298C 129.854,288.343 113.52,280.01 96.5,273C 85.3974,269.951 74.3974,269.784 63.5,272.5C 46.5662,273.953 29.8996,276.953 13.5,281.5C 12.09,281.132 11.09,280.299 10.5,279C 23.1068,259.554 40.4402,246.387 62.5,239.5C 78.9057,236.626 95.239,237.126 111.5,241C 131.448,247.205 151.115,254.205 170.5,262C 174.514,262.837 178.514,263.671 182.5,264.5C 187.233,266.046 192.233,266.713 197.5,266.5C 218.484,267.677 229.484,257.843 230.5,237C 229.449,220.115 220.449,210.948 203.5,209.5C 203.343,208.127 203.51,206.793 204,205.5C 210.55,198.622 218.384,193.789 227.5,191C 259.789,189.23 280.955,203.73 291,234.5C 297.142,260.785 289.975,282.618 269.5,300C 250.845,311.435 230.511,316.602 208.5,315.5 Z"/></g>
<g><path style="opacity:1" fill="#d8d9d9" d="M 208.5,315.5 C 222.097,332.106 238.097,345.772 256.5,356.5C 236.5,356.5 216.5,356.5 196.5,356.5C 187.678,345.08 176.012,338.246 161.5,336C 144.04,332.913 127.04,334.413 110.5,340.5C 85.9674,324.146 70.3007,301.479 63.5,272.5C 74.3974,269.784 85.3974,269.951 96.5,273C 113.52,280.01 129.854,288.343 145.5,298C 165.031,309.234 186.031,315.067 208.5,315.5 Z"/></g>
<g><path style="opacity:0.978" fill="#8dcdd7" d="M 474.5,342.5 C 485.507,375.983 476.173,402.15 446.5,421C 413.539,437.82 379.206,441.153 343.5,431C 330.167,427 316.833,423 303.5,419C 293.561,416.338 283.561,416.004 273.5,418C 251.425,423.803 230.258,431.97 210,442.5C 208.268,442.266 207.434,441.266 207.5,439.5C 222.995,400.538 251.828,381.205 294,381.5C 315.945,382.968 337.778,385.468 359.5,389C 369.545,389.831 379.545,389.498 389.5,388C 405.822,383.861 413.822,373.361 413.5,356.5C 410.075,337.764 398.742,329.097 379.5,330.5C 380.44,327.286 381.94,324.286 384,321.5C 400.147,304.109 419.313,299.942 441.5,309C 456.076,316.742 467.076,327.909 474.5,342.5 Z"/></g>
<g><path style="opacity:0.966" fill="#bbe7ed" d="M 196.5,356.5 C 206.065,375.608 204.565,393.942 192,411.5C 178.615,425.31 163.115,428.477 145.5,421C 142.154,418.988 139.488,416.321 137.5,413C 137.645,412.228 137.978,411.561 138.5,411C 151.739,408.674 157.905,400.841 157,387.5C 155.946,380.209 152.113,375.042 145.5,372C 138.916,370.456 132.249,370.123 125.5,371C 108.363,376.268 91.3634,381.934 74.5,388C 43.756,396.907 18.756,388.74 -0.5,363.5C -0.5,362.167 -0.5,360.833 -0.5,359.5C 10.1129,361.522 20.7796,363.355 31.5,365C 44.9903,368.091 57.9903,366.758 70.5,361C 83.4488,353.359 96.7821,346.526 110.5,340.5C 127.04,334.413 144.04,332.913 161.5,336C 176.012,338.246 187.678,345.08 196.5,356.5 Z"/></g>
</svg>
